<?xml version="1.0" encoding="UTF-8"?>
<!-- Generator: visioncortex VTracer 0.6.12 -->
<svg version="1.1" xmlns="http://www.w3.org/2000/svg" width="156" height="119">
<path d="M0 0 C51.48 0 102.96 0 156 0 C156 39.27 156 78.54 156 119 C104.52 119 53.04 119 0 119 C0 79.73 0 40.46 0 0 Z " fill="#FDFDFD" transform="translate(0,0)"/>
<path d="M0 0 C11.88 0 23.76 0 36 0 C36 0.99 36 1.98 36 3 C33.36 3 30.72 3 28 3 C28 8.28 28 13.56 28 19 C29.485 19.33 29.485 19.33 37 21 C37 22.65 37 24.3 37 26 C35.561 25.913 34.124 25.804 32.688 25.688 C31.887 25.629 31.086 25.571 30.262 25.512 C27.609 24.912 26.635 24.143 25 22 C25 21.34 25 20.68 25 20 C24.01 20 23.02 20 22 20 C21.67 22.31 21.34 24.62 21 27 C16.125 26.125 16.125 26.125 15 25 C14.782 23.627 14.576 22.251 14.375 20.875 C13.194 15.283 10.22 12.621 6 9 C5.031 8.115 4.072 7.221 3.125 6.312 C2.736 5.958 2.346 5.604 1.945 5.238 C1 4 1 4 0 0 Z " fill="#ECECEC" transform="translate(39,0)"/>
<path d="M0 0 C12.21 0 24.42 0 37 0 C41.5 7.875 41.5 7.875 41.391 11.621 C41.378 12.411 41.365 13.2 41.352 14.014 C41.318 14.814 41.285 15.613 41.25 16.438 C41.232 17.264 41.214 18.091 41.195 18.943 C41.149 20.963 41.083 22.981 41 25 C39.35 25 37.7 25 36 25 C35.99 24.717 35.99 24.717 35.94 23.288 C35.845 20.733 35.735 18.179 35.625 15.625 C35.594 14.736 35.563 13.846 35.531 12.93 C35.512 12.504 35.512 12.504 35.414 10.352 C35.383 9.566 35.351 8.781 35.319 7.971 C35 6 35 6 33 4 C29.7 4 26.4 4 23 4 C22.34 10.93 21.68 17.86 21 25 C19.02 25 17.04 25 15 25 C14.67 18.4 14.34 11.8 14 5 C8 8 8 8 7 9 C6.845 10.194 6.75 11.396 6.684 12.598 C6.642 13.316 6.6 14.035 6.557 14.775 C6.537 15.153 6.537 15.153 6.438 17.062 C6.394 17.821 6.351 18.58 6.307 19.361 C6.2 21.241 6.098 23.12 6 25 C4.02 25 2.04 25 0 25 C0 16.75 0 8.5 0 0 Z " fill="#B5B5B5" transform="translate(107,0)"/>
<path d="M0 0 C3.08 2.148 4.759 4.466 6 8 C6 9.98 6 11.96 6 14 C-1.26 14 -8.52 14 -16 14 C-13 19 -13 19 -11 20 C-6.743 20.451 -3.772 20.081 0 18 C2.25 17.875 2.25 17.875 4 18 C2.604 21.373 1.076 23.042 -2 25 C-5.341 26.3 -8.471 26.772 -12 26 C-16.085 23.476 -19.22 20.509 -21 16 C-21.566 11.828 -21.634 8.182 -19.625 4.438 C-18 3 -18 3 -16 3 C-16 2.34 -16 1.68 -16 1 C-11.463 -1.268 -4.886 -1.108 0 0 Z " fill="#454545" transform="translate(98,0)"/>
<path d="M0 0 C8.91 0 17.82 0 27 0 C27 8.25 27 16.5 27 25 C25.35 24.67 23.7 24.34 22 24 C22 19.71 22 15.42 22 11 C16.39 11 10.78 11 5 11 C5 15.62 5 20.24 5 25 C3.35 25 1.7 25 0 25 C0 16.75 0 8.5 0 0 Z " fill="#2F2F2F" transform="translate(7,0)"/>
<path d="M0 0 C6.6 0 13.2 0 20 0 C24.5 7.875 24.5 7.875 24.391 11.621 C24.384 12.016 24.384 12.016 24.352 14.014 C24.318 14.814 24.285 15.613 24.25 16.438 C24.232 17.264 24.214 18.091 24.195 18.943 C24.149 20.963 24.083 22.981 24 25 C22.35 25 20.7 25 19 25 C18.98 24.435 18.96 23.87 18.94 23.288 C18.845 20.733 18.735 18.179 18.625 15.625 C18.594 14.736 18.563 13.846 18.531 12.93 C18.493 12.079 18.454 11.228 18.414 10.352 C18.398 9.959 18.398 9.959 18.319 7.971 C18 6 18 6 16 4 C13.617 3.805 13.617 3.805 10.875 3.875 C9.965 3.893 9.055 3.911 8.117 3.93 C7.419 3.953 6.72 3.976 6 4 C6 4.66 6 5.32 6 6 C5.34 6 4.68 6 4 6 C3.67 11.94 3.34 17.88 3 24 C2.01 24 1.02 24 0 24 C0 16.08 0 8.16 0 0 Z " fill="#4E4E4E" transform="translate(124,0)"/>
<path d="M0 0 C2.711 1.862 4.164 3.81 5 7 C4.67 8.32 4.34 9.64 4 11 C-2.6 11 -9.2 11 -16 11 C-15.67 8.69 -15.34 6.38 -15 4 C-16.426 4.68 -16.426 4.68 -18 6 C-18.73 8.383 -18.73 8.383 -19.188 11.125 C-19.346 12.035 -19.505 12.945 -19.668 13.883 C-19.778 14.581 -19.887 15.28 -20 16 C-20.33 16 -20.66 16 -21 16 C-21.469 7.874 -21.469 7.874 -19.625 4.438 C-18 3 -18 3 -16 3 C-16 2.34 -16 1.68 -16 1 C-11.496 -1.252 -4.868 -1.015 0 0 Z " fill="#303030" transform="translate(98,0)"/>
<path d="M0 0 C2.97 0 5.94 0 9 0 C9 7.92 9 15.84 9 24 C8.67 24 8.34 24 8 24 C7.67 21.36 7.34 18.72 7 16 C6.588 17.134 6.175 18.269 5.75 19.438 C4.304 22.87 4.304 22.87 1.812 23.938 C1.513 23.948 1.513 23.948 0 24 C1.32 22.02 2.64 20.04 4 18 C3.504 18.217 3.007 18.433 2.496 18.656 C-6.29 22.257 -6.29 22.257 -11 21 C-13.043 19.607 -14.64 18.068 -16 16 C-16 15.34 -16 14.68 -16 14 C-8.74 14 -1.48 14 6 14 C3.75 6.125 3.75 6.125 1.875 3.062 C1.256 2.052 0.638 1.041 0 0 Z " fill="#E3E3E3" transform="translate(98,0)"/>
<path d="M0 0 C2.97 0 5.94 0 9 0 C8.67 0.165 8.67 0.165 7 1 C7 1.66 7 2.32 7 3 C6.67 3.258 6.67 3.258 5 4.562 C3.36 6.098 3.02 6.856 2.699 9.121 C2.68 12.924 2.974 16.329 4 20 C3.34 20 2.68 20 2 20 C2 21.65 2 23.3 2 25 C1.67 23.68 1.34 22.36 1 21 C-0.485 20.67 -0.485 20.67 -8 19 C-8 13.72 -8 8.44 -8 3 C-5.36 3 -2.72 3 0 3 C0 2.01 0 1.02 0 0 Z " fill="#F3F3F3" transform="translate(75,0)"/>
<path d="M0 0 C5.61 0 11.22 0 17 0 C17 0.99 17 1.98 17 3 C14.36 3 11.72 3 9 3 C9 8.28 9 13.56 9 19 C10.485 19.33 10.485 19.33 18 21 C18 22.65 18 24.3 18 26 C10.066 25.814 10.066 25.814 7.547 23.891 C5.233 20.956 3.869 18.448 3.902 14.742 C3.904 14.43 3.904 14.43 3.912 12.848 C3.92 12.197 3.929 11.546 3.938 10.875 C3.942 10.216 3.947 9.558 3.951 8.879 C3.963 7.253 3.981 5.626 4 4 C2.68 4 1.36 4 0 4 C0 2.68 0 1.36 0 0 Z " fill="#515151" transform="translate(58,0)"/>
<path d="M0 0 C4.468 0.496 6.238 1.625 9 5 C9 5.66 9 6.32 9 7 C9.557 7.247 10.114 7.495 10.688 7.75 C17.186 11.263 17.186 11.263 18.641 14.367 C19.077 16.348 19.096 18.161 19.062 20.188 C19.053 20.903 19.044 21.618 19.035 22.355 C19.024 22.898 19.012 23.441 19 24 C18.01 24 17.02 24 16 24 C15.865 23.504 15.729 23.007 15.59 22.496 C13.688 16.494 10.633 13.145 6 9 C0.432 3.886 0.432 3.886 0 0 Z " fill="#2F2F2F" transform="translate(39,0)"/>
<path d="M0 0 C3.96 0 7.92 0 12 0 C11 4 11 4 9.66 5.047 C9.133 5.279 8.606 5.511 8.062 5.75 C7.538 5.992 7.013 6.235 6.473 6.484 C5 7 5 7 3 7 C3 12.61 3 18.22 3 24 C2.01 24 1.02 24 0 24 C0 16.08 0 8.16 0 0 Z " fill="#373737" transform="translate(108,0)"/>
<path d="M0 0 C5.94 0 11.88 0 18 0 C18 1.98 18 3.96 18 6 C12.06 6 6.12 6 0 6 C0 4.02 0 2.04 0 0 Z " fill="#EBEBEB" transform="translate(12,0)"/>
<path d="M0 0 C0.66 0 1.32 0 2 0 C1.67 2.31 1.34 4.62 1 7 C4.3 6.835 4.3 6.835 21 6 C21.33 6.99 21.66 7.98 22 9 C14.74 9 7.48 9 0 9 C0 10.65 0 12.3 0 14 C-0.99 14 -1.98 14 -3 14 C-3.573 4.26 -3.573 4.26 0 0 Z " fill="#131313" transform="translate(81,4)"/>
<path d="M0 0 C1.938 1.25 1.938 1.25 3 3 C3 4.32 3 5.64 3 7 C-1.95 7 -6.9 7 -12 7 C-11.34 5.02 -10.68 3.04 -10 1 C-6.532 -0.156 -3.624 -0.48 0 0 Z " fill="#EEEEEE" transform="translate(95,3)"/>
<path d="M0 0 C2.97 0 5.94 0 9 0 C9 7.92 9 15.84 9 24 C8.67 24 8.34 24 8 24 C7.963 23.108 7.925 22.216 7.887 21.297 C7.821 20.115 7.755 18.932 7.688 17.75 C7.665 17.163 7.642 16.577 7.619 15.973 C7.377 12.053 6.664 10.03 4 7 C2.602 4.699 1.312 2.352 0 0 Z " fill="#EBEBEB" transform="translate(98,0)"/>
<path d="M0 0 C0.66 0 1.32 0 2 0 C2 0.66 2 1.32 2 2 C4.64 1.67 7.28 1.34 10 1 C6.212 2.959 6.212 2.959 4.375 3.312 C3 4 3 4 1 9 C5.95 9 10.9 9 16 9 C16.33 8.01 16.66 7.02 17 6 C17 7.32 17 8.64 17 10 C11.39 10 5.78 10 0 10 C0.33 7.69 0.66 5.38 1 3 C-0.426 3.68 -0.426 3.68 -2 5 C-2.73 7.383 -2.73 7.383 -3.188 10.125 C-3.346 11.035 -3.505 11.945 -3.668 12.883 C-3.778 13.581 -3.887 14.28 -4 15 C-4.33 15 -4.66 15 -5 15 C-5.469 6.874 -5.469 6.874 -3.625 3.438 C-2 2 -2 2 0 2 C0 1.34 0 0.68 0 0 Z " fill="#737373" transform="translate(82,1)"/>
<path d="M0 0 C0.66 0 1.32 0 2 0 C2 0.66 2 1.32 2 2 C2.66 2 3.32 2 4 2 C3.34 8.93 2.68 15.86 2 23 C1.34 23 0.68 23 0 23 C0 15.41 0 7.82 0 0 Z " fill="#0D0D0D" transform="translate(125,1)"/>
<path d="M0 0 C2.033 0.175 3.993 0.616 6 1 C5.67 1.165 5.67 1.165 4 2 C4 2.66 4 3.32 4 4 C4.66 4.33 5.32 4.66 6 5 C6.33 5.99 6.66 6.98 7 8 C4.36 8 1.72 8 -1 8 C-1.098 2.629 -1.098 2.629 -1 1 C-0.67 0.67 -0.34 0.34 0 0 Z " fill="#F4F2EF" transform="translate(1,111)"/>
<path d="M0 0 C0.33 0.66 0.66 1.32 1 2 C1.66 2 2.32 2 3 2 C2.67 8.93 2.34 15.86 2 23 C1.34 23 0.68 23 0 23 C0 15.41 0 7.82 0 0 Z " fill="#121212" transform="translate(109,1)"/>
<path d="M0 0 C0.66 0.33 0.66 0.33 4 2 C4 8.27 4 14.54 4 21 C3.34 21 2.68 21 2 21 C1.975 20.506 1.95 20.012 1.924 19.503 C1.808 17.252 1.685 15.001 1.562 12.75 C1.523 11.973 1.484 11.195 1.443 10.395 C1.401 9.64 1.36 8.886 1.316 8.109 C1.28 7.418 1.243 6.727 1.205 6.015 C0.993 3.934 0.555 2.014 0 0 Z " fill="#030303" transform="translate(142,3)"/>
<path d="M0 0 C0 0.66 0 1.32 0 2 C-6.93 2 -13.86 2 -21 2 C-21 1.34 -21 0.68 -21 0 C-17.875 -0.196 -14.75 -0.381 -11.625 -0.562 C-11.18 -0.591 -11.18 -0.591 -8.93 -0.732 C-8.504 -0.757 -8.504 -0.757 -6.352 -0.879 C-5.566 -0.926 -4.781 -0.973 -3.971 -1.022 C-2 -1 -2 -1 0 0 Z " fill="#0F0F0F" transform="translate(103,11)"/>
<path d="M0 0 C0.33 0 0.66 0 1 0 C1 8.25 1 16.5 1 25 C2.32 25 3.64 25 5 25 C4.67 25.99 4.34 26.98 4 28 C2.68 27.67 1.36 27.34 0 27 C0 18.09 0 9.18 0 0 Z " fill="#E1E1E1" transform="translate(6,0)"/>
<path d="M0 0 C-1.246 2.876 -2.222 4.485 -5 6 C-5 5.34 -5 4.68 -5 4 C-8.63 4 -12.26 4 -16 4 C-16.33 3.34 -16.66 2.68 -17 2 C-16.397 2.023 -15.793 2.046 -15.172 2.07 C-14.373 2.088 -13.573 2.106 -12.75 2.125 C-12.356 2.137 -12.356 2.137 -10.359 2.195 C-6.476 1.874 -4.037 -0.288 0 0 Z " fill="#5A5A5A" transform="translate(102,18)"/>
<path d="M0 0 C0.66 0.33 1.32 0.66 2 1 C2 3.64 2 6.28 2 9 C-2.875 8.125 -2.875 8.125 -4 7 C-4.041 5.334 -4.043 3.666 -4 2 C-3.67 3.32 -3.34 4.64 -3 6 C-2.01 6 -1.02 6 0 6 C0 4.02 0 2.04 0 0 Z " fill="#9E9E9E" transform="translate(58,18)"/>
<path d="M0 0 C1.32 0.33 2.64 0.66 4 1 C4 3.64 4 6.28 4 9 C3.01 9 2.02 9 1 9 C0.67 6.03 0.34 3.06 0 0 Z " fill="#131313" transform="translate(54,15)"/>
<path d="M0 0 C0.66 0 1.32 0 2 0 C1.67 1.65 1.34 3.3 1 5 C-1.64 5 -4.28 5 -7 5 C-7.33 5.66 -7.66 6.32 -8 7 C-8 5.68 -8 4.36 -8 3 C-5.36 3 -2.72 3 0 3 C0 2.01 0 1.02 0 0 Z " fill="#C9C9C9" transform="translate(75,0)"/>
<path d="M0 0 C1.65 0 3.3 0 5 0 C5.66 1.65 6.32 3.3 7 5 C6.01 4.67 5.02 4.34 4 4 C3.67 4.66 3.34 5.32 3 6 C1.68 4.68 0.36 3.36 -1 2 C-0.67 1.34 -0.34 0.68 0 0 Z " fill="#3D3D3D" transform="translate(139,0)"/>
<path d="M0 0 C4.29 0.33 8.58 0.66 13 1 C11 3 11 3 8.398 3.195 C7.39 3.182 6.383 3.158 5.375 3.125 C4.859 3.116 4.344 3.107 3.812 3.098 C2.541 3.074 1.271 3.038 0 3 C0 2.01 0 1.02 0 0 Z " fill="#1C1C1C" transform="translate(84,0)"/>
<path d="M0 0 C0.559 0.052 1.118 0.104 1.693 0.158 C3.067 0.287 4.44 0.424 5.812 0.562 C5.812 0.893 5.812 1.223 5.812 1.562 C4.563 1.732 3.313 1.898 2.062 2.062 C1.714 2.109 1.714 2.109 -0.047 2.344 C-6.178 2.97 -6.178 2.97 -9.188 0.562 C-6.186 -0.859 -3.193 -0.327 0 0 Z " fill="#0B0B0B" transform="translate(68.1875,0.4375)"/>
<path d="M0 0 C0.623 0.009 1.245 0.018 1.887 0.027 C2.122 0.033 2.122 0.033 3.312 0.062 C3.642 1.053 3.972 2.043 4.312 3.062 C2.993 2.732 1.672 2.402 0.312 2.062 C-0.017 2.723 -0.347 3.383 -0.688 4.062 C-2.998 3.732 -5.308 3.402 -7.688 3.062 C-6.688 1.062 -6.688 1.062 -5.355 0.441 C-3.514 0.023 -1.886 -0.036 0 0 Z " fill="#C7C7C7" transform="translate(91.6875,2.9375)"/>
<path d="M0 0 C0.081 1.624 0.139 3.25 0.188 4.875 C0.222 5.78 0.257 6.685 0.293 7.617 C0.196 8.404 0.1 9.19 0 10 C-0.99 10.66 -1.98 11.32 -3 12 C-3 8.37 -3 4.74 -3 1 C-1 0 -1 0 0 0 Z " fill="#1C1C1C" transform="translate(66,3)"/>
<path d="M0 0 C0.99 0 1.98 0 3 0 C3.562 1.938 3.562 1.938 4 4 C3 5 3 5 1.59 5.098 C0.06 5.065 -1.47 5.033 -3 5 C-2.67 4.01 -2.34 3.02 -2 2 C-1.34 2 -0.68 2 0 2 C0 1.34 0 0.68 0 0 Z " fill="#F7F7F7" transform="translate(73,15)"/>
<path d="M0 0 C2.31 0 4.62 0 7 0 C7.66 1.32 8.32 2.64 9 4 C8.34 4 7.68 4 7 4 C7 4.66 7 5.32 7 6 C6.01 5.67 5.02 5.34 4 5 C4 4.01 4 3.02 4 2 C2.68 1.34 1.36 0.68 0 0 Z " fill="#3F3F3F" transform="translate(91,0)"/>
<path d="M0 0 C0.763 0.351 1.526 0.701 2.312 1.062 C5 2 5 2 6.812 1.625 C7.204 1.419 7.596 1.213 8 1 C8.33 2.32 8.66 3.64 9 5 C8.01 4.67 7.02 4.34 6 4 C5.67 4.99 5.34 5.98 5 7 C3.35 4.69 1.7 2.38 0 0 Z " fill="#515151" transform="translate(48,11)"/>
<path d="M0 0 C1.98 0 3.96 0 6 0 C5.25 4.75 5.25 4.75 3 7 C2.01 6.67 1.02 6.34 0 6 C1.32 4.35 2.64 2.7 4 1 C2.68 0.67 1.36 0.34 0 0 Z " fill="#C1C1C1" transform="translate(98,17)"/>
<path d="M0 0 C2.31 0 4.62 0 7 0 C6.67 0.165 6.67 0.165 5 1 C5 1.66 5 2.32 5 3 C4.34 3.33 4.34 3.33 1 5 C0.67 3.35 0.34 1.7 0 0 Z " fill="#EAEAEA" transform="translate(77,0)"/>
<path d="M0 0 C3.333 1.333 6.667 2.667 10 4 C10 4.33 10 4.66 10 5 C4.632 5.366 4.632 5.366 1.625 3.625 C1.089 3.089 0.552 2.553 0 2 C0 1.34 0 0.68 0 0 Z " fill="#0B0B0B" transform="translate(81,19)"/>
<path d="M0 0 C3.906 2.051 3.906 2.051 5 3 C5 3.99 5 4.98 5 6 C3.68 6.33 2.36 6.66 1 7 C1.33 5.35 1.66 3.7 2 2 C1.34 2 0.68 2 0 2 C0 1.34 0 0.68 0 0 Z " fill="#E5E5E5" transform="translate(42,7)"/>
<path d="M0 0 C0.66 0 1.32 0 2 0 C1.67 2.31 1.34 4.62 1 7 C0.01 6.01 -0.98 5.02 -2 4 C-1.34 2.68 -0.68 1.36 0 0 Z " fill="#181818" transform="translate(81,4)"/>
<path d="M0 0 C0.66 0 1.32 0 2 0 C2.33 1.98 2.66 3.96 3 6 C1.5 4.688 1.5 4.688 0 3 C0 2.01 0 1.02 0 0 Z " fill="#080808" transform="translate(98,4)"/>
<path d="M0 0 C1.32 0.33 2.64 0.66 4 1 C3.67 1.99 3.34 2.98 3 4 C1.5 3.125 1.5 3.125 0 2 C0 1.34 0 0.68 0 0 Z " fill="#0C0C0C" transform="translate(44,5)"/>
<path d="M0 0 C1.32 0.33 2.64 0.66 4 1 C3.01 1.66 2.02 2.32 1 3 C0.67 2.01 0.34 1.02 0 0 Z " fill="#1A1A1A" transform="translate(51,11)"/>
<path d="M0 0 C0.66 0.33 1.32 0.66 2 1 C1.67 1.99 1.34 2.98 1 4 C0.34 3.67 -0.32 3.34 -1 3 C-0.67 2.01 -0.34 1.02 0 0 Z " fill="#F8F8F8" transform="translate(36,1)"/>
<path d="M0 0 C0.66 0 1.32 0 2 0 C1.67 0.99 1.34 1.98 1 3 C0.34 2.34 -0.32 1.68 -1 1 C-0.67 0.67 -0.34 0.34 0 0 Z " fill="#141414" transform="translate(99,19)"/>
</svg>
