<?xml version="1.0" encoding="UTF-8"?>
<!-- Generator: visioncortex VTracer 0.6.12 -->
<svg version="1.1" xmlns="http://www.w3.org/2000/svg" width="166" height="119">
<path d="M0 0 C54.78 0 109.56 0 166 0 C166 39.27 166 78.54 166 119 C111.22 119 56.44 119 0 119 C0 79.73 0 40.46 0 0 Z " fill="#FDFEFD" transform="translate(0,0)"/>
<path d="M0 0 C38.94 0 77.88 0 118 0 C118 8.58 118 17.16 118 26 C79.06 26 40.12 26 0 26 C0 17.42 0 8.84 0 0 Z " fill="#EA7D00" transform="translate(14,93)"/>
<path d="M0 0 C20.79 0 41.58 0 63 0 C63.33 1.155 63.33 1.155 65 7 C65.165 7.495 65.165 7.495 66 10 C66.234 12.184 66.231 14.367 66.25 16.562 C66.271 17.152 66.291 17.742 66.312 18.35 C66.328 20.066 66.328 20.066 66 23 C63.764 25.063 61.961 25.24 58.988 25.195 C58.231 25.189 57.474 25.182 56.693 25.176 C56.301 25.167 56.301 25.167 54.312 25.125 C53.515 25.116 52.718 25.107 51.896 25.098 C49.931 25.074 47.965 25.041 46 25 C45.854 25.788 45.709 26.575 45.559 27.387 C45.04 29.814 44.638 31.17 43 33 C42.34 33 41.68 33 41 33 C40.732 33.907 40.464 34.815 40.188 35.75 C39.248 38.602 37.953 40.692 36 43 C31.918 42.449 29.765 40.335 26.875 37.625 C26.433 37.225 25.991 36.826 25.535 36.414 C23.349 34.406 21.599 32.517 20 30 C18.375 29.312 18.375 29.312 17 29 C16.876 29.639 16.752 30.279 16.625 30.938 C16.522 31.278 16.522 31.278 16 33 C13.309 34.345 10.812 34.107 7.875 34.062 C7.593 34.06 7.593 34.06 6.168 34.049 C4.779 34.037 3.389 34.019 2 34 C-1.344 27.948 -1.25 22.091 -1.064 15.373 C-1.046 14.694 -1.027 14.016 -1.008 13.316 C-0.983 12.702 -0.959 12.088 -0.934 11.455 C-1 10 -1 10 -2 9 C-2.098 7.371 -2.098 7.371 -2.062 5.438 C-2.053 4.797 -2.044 4.156 -2.035 3.496 C-2.024 3.002 -2.012 2.509 -2 2 C-1.34 2 -0.68 2 0 2 C0 1.34 0 0.68 0 0 Z " fill="#CCC9CA" transform="translate(27,0)"/>
<path d="M0 0 C1.438 0.25 1.438 0.25 3 1 C3.688 3.063 3.688 3.063 4 5 C4.66 3.35 5.32 1.7 6 0 C10.29 0 14.58 0 19 0 C19.165 0.99 19.165 0.99 20 6 C20.66 6 21.32 6 22 6 C22 4.35 22 2.7 22 1 C25.3 0.67 28.6 0.34 32 0 C32 0.66 32 1.32 32 2 C32.804 1.979 33.609 1.959 34.438 1.938 C37 2 37 2 38 3 C38.139 5.006 38.043 6.987 38 9 C39.32 9 40.64 9 42 9 C42 9.99 42 10.98 42 12 C42.392 12.041 42.392 12.041 44.375 12.25 C47 13 47 13 48.312 15.062 C48.539 15.702 48.766 16.341 49 17 C47.397 18.603 45.578 18.119 43.433 18.124 C42.782 18.121 42.131 18.117 41.461 18.114 C40.778 18.114 40.095 18.114 39.391 18.114 C37.124 18.113 34.857 18.105 32.59 18.098 C31.022 18.096 29.454 18.094 27.886 18.093 C23.751 18.09 19.617 18.08 15.482 18.069 C11.266 18.058 7.05 18.054 2.834 18.049 C-5.444 18.038 -13.722 18.021 -22 18 C-21.67 16.35 -21.34 14.7 -21 13 C-19.68 12.67 -18.36 12.34 -17 12 C-16.67 10.68 -16.34 9.36 -16 8 C-15.34 8 -14.68 8 -14 8 C-14 7.34 -14 6.68 -14 6 C-13.578 5.867 -13.578 5.867 -11.445 5.195 C-10.338 4.839 -9.232 4.482 -8.125 4.125 C-7.847 4.038 -7.847 4.038 -6.441 3.598 C-5.906 3.424 -5.371 3.25 -4.82 3.07 C-4.574 2.992 -4.574 2.992 -3.329 2.594 C-2 2 -2 2 0 0 Z " fill="#D9D32D" transform="translate(62,101)"/>
<path d="M0 0 C37.95 0 75.9 0 115 0 C115 8.25 115 16.5 115 25 C103.689 26.06 103.689 26.06 100.696 24.181 C98.769 22.399 97.26 20.368 95.719 18.254 C94.091 16.12 92.849 15.02 90.562 13.688 C88.059 12.221 88.059 12.221 87.438 9.875 C87.365 9.566 87.365 9.566 87 8 C84.438 6.75 84.438 6.75 82 6 C82 5.34 82 4.68 82 4 C81.576 4.023 81.152 4.046 80.715 4.07 C80.128 4.088 79.542 4.106 78.938 4.125 C78.653 4.137 78.653 4.137 77.215 4.195 C75.2 4.018 73.71 3.622 71.801 3.008 C68.134 1.942 64.765 1.695 60.963 1.681 C60.299 1.671 59.635 1.661 58.95 1.651 C56.781 1.62 54.611 1.603 52.441 1.586 C50.927 1.567 49.412 1.548 47.898 1.527 C43.931 1.476 39.964 1.436 35.997 1.399 C31.941 1.359 27.886 1.308 23.83 1.258 C15.887 1.161 7.943 1.077 0 1 C0 0.67 0 0.34 0 0 Z " fill="#824402" transform="translate(16,94)"/>
<path d="M0 0 C1.32 0 2.64 0 4 0 C4.066 0.235 4.066 0.235 4.402 1.426 C4.579 2.048 4.756 2.671 4.938 3.312 C5.112 3.927 5.286 4.542 5.465 5.176 C5.785 6.268 6.13 7.354 6.521 8.422 C7.334 11.099 7.226 13.784 7.25 16.562 C7.271 17.152 7.291 17.742 7.312 18.35 C7.328 20.066 7.328 20.066 7 23 C4.764 25.063 2.961 25.24 -0.012 25.195 C-0.769 25.189 -1.526 25.182 -2.307 25.176 C-2.699 25.167 -2.699 25.167 -4.688 25.125 C-5.485 25.116 -6.282 25.107 -7.104 25.098 C-9.069 25.074 -11.035 25.041 -13 25 C-13.146 25.788 -13.291 26.575 -13.441 27.387 C-13.96 29.814 -14.362 31.17 -16 33 C-16.66 33 -17.32 33 -18 33 C-18.268 33.907 -18.536 34.815 -18.812 35.75 C-19.752 38.602 -21.047 40.692 -23 43 C-27.082 42.449 -29.235 40.335 -32.125 37.625 C-32.567 37.225 -33.009 36.826 -33.465 36.414 C-35.659 34.398 -37.354 32.492 -39 30 C-41.125 29.312 -41.125 29.312 -43 29 C-43.124 29.474 -43.248 29.949 -43.375 30.438 C-44 32 -44 32 -46 33 C-47.707 33.07 -49.417 33.084 -51.125 33.062 C-52.035 33.053 -52.945 33.044 -53.883 33.035 C-54.581 33.024 -55.28 33.012 -56 33 C-56.33 32.34 -56.66 31.68 -57 31 C-56.385 30.951 -55.77 30.902 -55.137 30.852 C-54.328 30.777 -53.52 30.702 -52.688 30.625 C-51.887 30.555 -51.086 30.486 -50.262 30.414 C-47.935 29.988 -46.744 29.577 -45 28 C-44.67 27.01 -44.34 26.02 -44 25 C-38.72 24.67 -33.44 24.34 -28 24 C-28.021 22.371 -28.041 20.741 -28.062 19.062 C-28.084 17.375 -28.072 15.686 -28 14 C-27 13 -27 13 -25.371 12.902 C-23.581 12.935 -21.79 12.967 -20 13 C-20 16.3 -20 19.6 -20 23 C-19.34 23 -18.68 23 -18 23 C-18 19.7 -18 16.4 -18 13 C-12.629 12.121 -12.629 12.121 -11 12 C-10 13 -10 13 -9.902 15.066 C-9.914 15.89 -9.926 16.714 -9.938 17.562 C-9.947 18.389 -9.956 19.215 -9.965 20.066 C-9.976 20.704 -9.988 21.343 -10 22 C-9.448 21.826 -8.897 21.652 -8.328 21.473 C-5.635 20.926 -3.474 21.115 -0.75 21.438 C0.142 21.539 1.034 21.641 1.953 21.746 C2.629 21.83 3.304 21.914 4 22 C4 21.01 4 20.02 4 19 C1.03 19 -1.94 19 -5 19 C-5 18.34 -5 17.68 -5 17 C-2.36 16.34 0.28 15.68 3 15 C3 13.35 3 11.7 3 10 C2.01 9.67 1.02 9.34 0 9 C0 6.03 0 3.06 0 0 Z " fill="#535A33" transform="translate(86,0)"/>
<path d="M0 0 C0 0.66 0 1.32 0 2 C0.69 2.026 1.379 2.052 2.09 2.078 C14.386 2.82 24.369 8.344 33.031 17.039 C37 21.588 37 21.588 37 23 C34.36 23 31.72 23 29 23 C29.165 22.505 29.165 22.505 30 20 C29.588 19.876 29.175 19.752 28.75 19.625 C26.74 18.907 24.894 17.98 23 17 C23 16.01 23 15.02 23 14 C21.68 14 20.36 14 19 14 C18.835 13.01 18.835 13.01 18 8 C12.906 5.91 8.471 5.781 3 6 C3 7.65 3 9.3 3 11 C2.34 11 1.68 11 1 11 C0.835 10.01 0.835 10.01 0 5 C-2.145 5.165 -2.145 5.165 -13 6 C-13.66 7.65 -14.32 9.3 -15 11 C-15.33 11 -15.66 11 -16 11 C-16.165 10.175 -16.165 10.175 -17 6 C-17.495 6.268 -17.99 6.536 -18.5 6.812 C-20.649 7.833 -22.787 8.754 -25 9.625 C-25.66 9.885 -26.32 10.146 -27 10.414 C-29.1 11.029 -30.824 11.107 -33 11 C-33 11.66 -33 12.32 -33 13 C-33.66 13 -34.32 13 -35 13 C-35 14.65 -35 16.3 -35 18 C-36.65 18.33 -38.3 18.66 -40 19 C-40.33 20.32 -40.66 21.64 -41 23 C-44.3 23 -47.6 23 -51 23 C-46.9 14.8 -40.746 9.073 -32 6 C-31.196 5.505 -30.391 5.01 -29.562 4.5 C-20.509 -0.8 -10.15 -0.139 0 0 Z " fill="#E7DA25" transform="translate(81,96)"/>
<path d="M0 0 C8.58 0 17.16 0 26 0 C26 2.97 26 5.94 26 9 C27.32 9.33 28.64 9.66 30 10 C30.188 12.375 30.188 12.375 30 15 C28.875 16.313 28.875 16.313 27 17 C24.968 17.15 23.044 17.091 21 17 C21 17.66 21 18.32 21 19 C23.97 19 26.94 19 30 19 C30 19.99 30 20.98 30 22 C25.38 22 20.76 22 16 22 C15.67 19.03 15.34 16.06 15 13 C12.69 13 10.38 13 8 13 C8 16.3 8 19.6 8 23 C7.34 23 6.68 23 6 23 C6 19.7 6 16.4 6 13 C3.69 13.33 1.38 13.66 -1 14 C-1.33 17.3 -1.66 20.6 -2 24 C-5.409 24.852 -7.804 25.108 -11.25 25.062 C-12.142 25.053 -13.034 25.044 -13.953 25.035 C-14.629 25.024 -15.304 25.012 -16 25 C-16 24.34 -16 23.68 -16 23 C-13.03 23 -10.06 23 -7 23 C-7 19.7 -7 16.4 -7 13 C-1.95 11.385 2.653 10.624 7.938 10.375 C8.279 10.356 8.279 10.356 10.01 10.258 C11.673 10.165 13.336 10.079 15 10 C15 9.34 15 8.68 15 8 C15.283 7.976 15.283 7.976 16.715 7.852 C17.448 7.777 18.182 7.702 18.938 7.625 C19.303 7.59 19.303 7.59 21.152 7.414 C21.762 7.277 22.372 7.141 23 7 C23.33 6.34 23.66 5.68 24 5 C23.636 5.036 23.636 5.036 21.797 5.219 C14.509 5.904 7.317 6.117 0 6 C0 4.02 0 2.04 0 0 Z " fill="#B5B4B1" transform="translate(60,0)"/>
<path d="M0 0 C1.438 0.25 1.438 0.25 3 1 C3.688 3.063 3.688 3.063 4 5 C4.66 3.35 5.32 1.7 6 0 C9.96 0 13.92 0 18 0 C17 4 17 4 16 5 C16.66 5.66 17.32 6.32 18 7 C17 8 17 8 14.688 8.062 C13.145 8.027 11.602 7.974 10.062 7.875 C7.642 8.022 5.728 8.738 3.461 9.555 C1.604 10.121 -0.073 10.148 -2 10 C-2 10.99 -2 11.98 -2 13 C-1.34 13 -0.68 13 0 13 C0 13.66 0 14.32 0 15 C0.99 15 1.98 15 3 15 C3.248 14.361 3.495 13.721 3.75 13.062 C5 11 5 11 7.125 10.25 C7.434 10.209 7.434 10.209 9 10 C9 10.66 9 11.32 9 12 C10.32 12 11.64 12 13 12 C12.625 14.438 12.625 14.438 12 17 C9.933 18.033 9.082 18.122 6.835 18.114 C6.515 18.113 6.515 18.113 4.895 18.113 C4.205 18.108 3.515 18.103 2.805 18.098 C2.097 18.096 1.39 18.095 0.661 18.093 C-1.601 18.088 -3.863 18.075 -6.125 18.062 C-7.658 18.057 -9.19 18.053 -10.723 18.049 C-14.482 18.038 -18.241 18.021 -22 18 C-21.67 16.35 -21.34 14.7 -21 13 C-19.68 12.67 -18.36 12.34 -17 12 C-16.67 10.68 -16.34 9.36 -16 8 C-15.34 8 -14.68 8 -14 8 C-14 7.34 -14 6.68 -14 6 C-13.578 5.867 -13.578 5.867 -11.445 5.195 C-10.338 4.839 -9.232 4.482 -8.125 4.125 C-7.847 4.038 -7.847 4.038 -6.441 3.598 C-5.906 3.424 -5.371 3.25 -4.82 3.07 C-4.574 2.992 -4.574 2.992 -3.329 2.594 C-2 2 -2 2 0 0 Z " fill="#E2E315" transform="translate(62,101)"/>
<path d="M0 0 C38.94 0 77.88 0 118 0 C118 8.58 118 17.16 118 26 C117.67 26 117.34 26 117 26 C117 17.75 117 9.5 117 1 C109.245 1.165 109.245 1.165 70 2 C74.62 2.99 79.24 3.98 84 5 C84.165 5.33 84.165 5.33 85 7 C86.644 7.722 88.311 8.394 90 9 C90 9.99 90 10.98 90 12 C89.471 11.713 88.943 11.425 88.398 11.129 C85.535 9.781 82.648 8.854 79.625 7.938 C79.073 7.764 78.522 7.591 77.953 7.412 C74.32 6.299 70.76 5.551 67 5 C67 4.34 67 3.68 67 3 C63.707 3.283 60.416 3.578 57.125 3.875 C56.207 3.954 55.289 4.032 54.344 4.113 C38.956 5.522 38.956 5.522 34 8 C32.449 7.879 32.449 7.879 30.688 7.562 C27.757 7.084 24.977 6.91 22 7 C21.67 6.01 21.34 5.02 21 4 C18.708 3.946 16.417 3.906 14.125 3.875 C13.8 3.867 13.8 3.867 12.152 3.824 C11.527 3.818 10.902 3.811 10.258 3.805 C9.682 3.794 9.106 3.784 8.512 3.773 C7 4 7 4 5 6 C4.01 6 3.02 6 2 6 C2 12.6 2 19.2 2 26 C1.34 26 0.68 26 0 26 C0 17.42 0 8.84 0 0 Z " fill="#CE8847" transform="translate(14,93)"/>
<path d="M0 0 C0.33 0 0.66 0 1 0 C1 15.667 1 15.667 -1 18 C-1.66 18 -2.32 18 -3 18 C-3.268 18.907 -3.536 19.815 -3.812 20.75 C-4.752 23.602 -6.047 25.692 -8 28 C-12.082 27.449 -14.235 25.335 -17.125 22.625 C-17.346 22.425 -17.346 22.425 -18.465 21.414 C-20.66 19.398 -22.354 17.49 -24 15 C-24.986 14.313 -25.985 13.644 -27 13 C-26.551 12.945 -26.102 12.889 -25.639 12.832 C-23.613 12.58 -21.588 12.321 -19.562 12.062 C-18.855 11.975 -18.148 11.888 -17.42 11.799 C-16.746 11.712 -16.073 11.625 -15.379 11.535 C-14.756 11.457 -14.133 11.378 -13.49 11.297 C-12 11 -12 11 -11 10 C-10.769 8.653 -10.588 7.296 -10.438 5.938 C-10.354 5.204 -10.27 4.471 -10.184 3.715 C-10.153 3.432 -10.153 3.432 -10 2 C-9.34 2 -8.68 2 -8 2 C-7.67 4.64 -7.34 7.28 -7 10 C-5.334 10.043 -3.666 10.041 -2 10 C-0.417 8.417 -0.653 6.62 -0.438 4.438 C-0.354 3.611 -0.27 2.785 -0.184 1.934 C-0.153 1.615 -0.153 1.615 0 0 Z " fill="#867D35" transform="translate(71,15)"/>
<path d="M0 0 C30.36 0 60.72 0 92 0 C91.34 0.33 90.68 0.66 90 1 C91.941 3.125 93.288 4.137 96 5 C96.165 5.33 96.165 5.33 97 7 C98.562 8.125 98.562 8.125 100 9 C99 15.429 99 15.429 98 18 C98.66 18.33 99.32 18.66 100 19 C96.453 19 95.023 17.843 92.375 15.75 C91.968 15.45 91.56 15.149 91.141 14.84 C88.436 12.735 87.689 11.285 87 8 C84.438 6.75 84.438 6.75 82 6 C82 5.34 82 4.68 82 4 C81.576 4.023 81.152 4.046 80.715 4.07 C80.128 4.088 79.542 4.106 78.938 4.125 C78.653 4.137 78.653 4.137 77.215 4.195 C75.2 4.018 73.71 3.622 71.801 3.008 C68.134 1.942 64.765 1.695 60.963 1.681 C60.299 1.671 59.635 1.661 58.95 1.651 C56.781 1.62 54.611 1.603 52.441 1.586 C50.927 1.567 49.412 1.548 47.898 1.527 C43.931 1.476 39.964 1.436 35.997 1.399 C31.941 1.359 27.886 1.308 23.83 1.258 C15.887 1.161 7.943 1.077 0 1 C0 0.67 0 0.34 0 0 Z " fill="#B55B12" transform="translate(16,94)"/>
<path d="M0 0 C3.63 0 7.26 0 11 0 C11 1.98 11 3.96 11 6 C11.364 5.964 11.364 5.964 13.203 5.781 C20.491 5.096 27.683 4.883 35 5 C34.67 5.99 34.34 6.98 34 8 C31.36 8 28.72 8 26 8 C26 8.66 26 9.32 26 10 C23.067 11.223 20.029 11.323 16.898 11.535 C16.303 11.578 15.707 11.621 15.093 11.665 C13.83 11.755 12.568 11.844 11.305 11.93 C9.402 12.061 7.5 12.199 5.598 12.338 C-0.944 12.804 -7.437 13.148 -14 13 C-14 12.01 -14 11.02 -14 10 C-13.313 9.867 -12.626 9.734 -11.918 9.598 C-11.467 9.509 -11.467 9.509 -9.188 9.062 C-8.294 8.888 -7.401 8.714 -6.48 8.535 C-4 8 -4 8 -2.531 7.406 C-0.117 6.766 2.239 7.163 4.688 7.438 C5.199 7.49 5.71 7.542 6.236 7.596 C7.491 7.725 8.746 7.862 10 8 C10 7.01 10 6.02 10 5 C6.7 5 3.4 5 0 5 C0 3.35 0 1.7 0 0 Z " fill="#272427" transform="translate(49,0)"/>
<path d="M0 0 C1.438 0.25 1.438 0.25 3 1 C3.688 3.063 3.688 3.063 4 5 C4.66 3.35 5.32 1.7 6 0 C9.96 0 13.92 0 18 0 C17 4 17 4 16 5 C16.66 5.66 17.32 6.32 18 7 C17 8 17 8 14.688 8.062 C13.145 8.027 11.602 7.974 10.062 7.875 C8.1 7.994 6.984 8.354 5.188 9.062 C1.644 10.358 -1.385 9.791 -5 9 C-5 9.66 -5 10.32 -5 11 C-6.32 11 -7.64 11 -9 11 C-9 11.66 -9 12.32 -9 13 C-9.99 13 -10.98 13 -12 13 C-12.33 10.69 -12.66 8.38 -13 6 C-12.145 5.651 -11.291 5.301 -10.41 4.941 C-9.294 4.482 -8.178 4.022 -7.062 3.562 C-6.499 3.332 -5.935 3.102 -5.354 2.865 C-1.113 1.113 -1.113 1.113 0 0 Z " fill="#93901F" transform="translate(62,101)"/>
<path d="M0 0 C0.323 0.007 0.323 0.007 1.955 0.041 C3.533 0.076 5.11 0.13 6.688 0.188 C7.017 1.507 7.347 2.828 7.688 4.188 C8.386 4.092 9.085 3.997 9.805 3.898 C10.715 3.788 11.625 3.677 12.562 3.562 C13.467 3.446 14.372 3.33 15.305 3.211 C16.091 3.203 16.877 3.195 17.688 3.188 C18.347 3.847 19.008 4.507 19.688 5.188 C18.698 5.188 17.707 5.188 16.688 5.188 C16.688 5.847 16.688 6.507 16.688 7.188 C12.968 9.564 9.698 9.46 5.438 9.375 C4.772 9.369 4.106 9.362 3.42 9.355 C-1.204 9.283 -5.754 9.003 -10.312 8.188 C-10.973 9.177 -11.633 10.168 -12.312 11.188 C-12.448 9.92 -12.545 8.648 -12.625 7.375 C-12.683 6.667 -12.741 5.96 -12.801 5.23 C-12.312 3.188 -12.312 3.188 -10.25 1.438 C-6.92 -0.296 -3.672 -0.147 0 0 Z " fill="#E26C02" transform="translate(28.3125,95.8125)"/>
<path d="M0 0 C19.582 -0.595 34.784 -0.923 50 13 C56 19.068 56 19.068 56 21 C53.36 21 50.72 21 48 21 C48.165 20.505 48.165 20.505 49 18 C48.588 17.876 48.175 17.752 47.75 17.625 C45.74 16.907 43.894 15.98 42 15 C42 14.01 42 13.02 42 12 C40.68 12 39.36 12 38 12 C37.835 11.01 37.835 11.01 37 6 C31.906 3.91 27.471 3.781 22 4 C22 5.65 22 7.3 22 9 C21.34 9 20.68 9 20 9 C19.34 6.36 18.68 3.72 18 1 C12.06 1.33 6.12 1.66 0 2 C0 1.34 0 0.68 0 0 Z " fill="#F1D416" transform="translate(62,98)"/>
<path d="M0 0 C2.97 0 5.94 0 9 0 C8.67 0.99 8.34 1.98 8 3 C7.34 3 6.68 3 6 3 C5.67 5.97 5.34 8.94 5 12 C4.67 12 4.34 12 4 12 C4 8.7 4 5.4 4 2 C3.34 2 2.68 2 2 2 C2.082 2.199 2.082 2.199 2.496 3.207 C3.12 5.426 3.096 7.385 3.062 9.688 C3.053 10.496 3.044 11.304 3.035 12.137 C3.024 12.752 3.012 13.366 3 14 C2.34 14 1.68 14 1 14 C0.67 11.03 0.34 8.06 0 5 C-2.31 5 -4.62 5 -7 5 C-7 8.3 -7 11.6 -7 15 C-7.66 15 -8.32 15 -9 15 C-9 11.7 -9 8.4 -9 5 C-11.31 5.33 -13.62 5.66 -16 6 C-16.33 9.3 -16.66 12.6 -17 16 C-20.409 16.852 -22.804 17.108 -26.25 17.062 C-27.142 17.053 -28.034 17.044 -28.953 17.035 C-29.629 17.024 -30.304 17.012 -31 17 C-31 16.34 -31 15.68 -31 15 C-28.03 15 -25.06 15 -22 15 C-22 11.7 -22 8.4 -22 5 C-16.95 3.385 -12.347 2.624 -7.062 2.375 C-6.379 2.336 -5.695 2.298 -4.99 2.258 C-3.327 2.165 -1.664 2.079 0 2 C0 1.34 0 0.68 0 0 Z " fill="#C1C1BE" transform="translate(75,8)"/>
<path d="M0 0 C38.28 0.33 76.56 0.66 116 1 C116 1.33 116 1.66 116 2 C78.38 2 40.76 2 2 2 C2 10.58 2 19.16 2 28 C1.34 28 0.68 28 0 28 C0 18.76 0 9.52 0 0 Z " fill="#FEF4DB" transform="translate(12,91)"/>
<path d="M0 0 C-0.33 2.31 -0.66 4.62 -1 7 C-1.99 7.33 -2.98 7.66 -4 8 C-4.73 9.629 -4.73 9.629 -5.188 11.562 C-5.346 12.203 -5.505 12.844 -5.668 13.504 C-5.778 13.998 -5.887 14.491 -6 15 C-7.65 15.33 -9.3 15.66 -11 16 C-11.625 14.812 -11.625 14.812 -12 13 C-11.062 10.312 -11.062 10.312 -10 8 C-12.767 5.029 -15.167 2.562 -19 1 C-19 0.34 -19 -0.32 -19 -1 C-13.266 -3.867 -5.865 -1.521 0 0 Z " fill="#904504" transform="translate(125,96)"/>
<path d="M0 0 C0.33 1.32 0.66 2.64 1 4 C1.459 3.905 1.918 3.809 2.391 3.711 C7.575 2.774 7.575 2.774 10 4.062 C12.822 5.385 14.598 4.618 17.512 3.801 C19 3 19 3 19.707 1.418 C19.804 0.95 19.9 0.482 20 0 C21.32 0.33 22.64 0.66 24 1 C23.639 1.258 23.639 1.258 21.812 2.562 C19.42 4.383 18.419 6.096 17.062 8.75 C15.867 10.582 15.867 10.582 14 12 C9.409 12.907 4.626 12.394 0 12 C0 8.04 0 4.08 0 0 Z " fill="#EF9404" transform="translate(16,107)"/>
<path d="M0 0 C4.62 0 9.24 0 14 0 C14 1.65 14 3.3 14 5 C17.3 5 20.6 5 24 5 C24 5.99 24 6.98 24 8 C23.096 7.977 22.193 7.954 21.262 7.93 C20.07 7.911 18.879 7.893 17.688 7.875 C17.093 7.858 16.498 7.841 15.885 7.824 C12.507 7.786 10.765 7.943 8 10 C5.957 10.195 5.957 10.195 3.812 10.125 C3.097 10.107 2.382 10.089 1.645 10.07 C1.102 10.047 0.559 10.024 0 10 C0.99 9.34 1.98 8.68 3 8 C2.01 7.67 1.02 7.34 0 7 C0 4.69 0 2.38 0 0 Z " fill="#8B898C" transform="translate(35,0)"/>
<path d="M0 0 C0.99 0.165 0.99 0.165 6 1 C6 1.66 6 2.32 6 3 C7.98 3 9.96 3 12 3 C12 4.65 12 6.3 12 8 C13.65 7.67 15.3 7.34 17 7 C17 8.65 17 10.3 17 12 C18.32 11.67 19.64 11.34 21 11 C21 11.66 21 12.32 21 13 C22.32 13.33 23.64 13.66 25 14 C24.67 14.33 24.34 14.66 24 15 C22.475 14.911 20.953 14.755 19.438 14.562 C18.611 14.461 17.785 14.359 16.934 14.254 C16.296 14.17 15.657 14.086 15 14 C14.67 13.01 14.34 12.02 14 11 C12.02 11 10.04 11 8 11 C8 10.34 8 9.68 8 9 C6.02 9.66 4.04 10.32 2 11 C3.189 8.536 4.46 6.259 6 4 C5.541 4.361 5.082 4.722 4.609 5.094 C3.996 5.558 3.382 6.022 2.75 6.5 C2.448 6.732 2.448 6.732 0.922 7.906 C-1.255 9.145 -2.537 9.218 -5 9 C-5 8.34 -5 7.68 -5 7 C-3.02 6.01 -1.04 5.02 1 4 C0.34 3.67 -0.32 3.34 -1 3 C-0.67 2.01 -0.34 1.02 0 0 Z " fill="#918F27" transform="translate(86,104)"/>
<path d="M0 0 C1.848 0.121 1.848 0.121 4.062 0.438 C4.796 0.539 5.529 0.641 6.285 0.746 C6.568 0.788 6.568 0.788 8 1 C6.361 5.767 3.738 9.788 1 14 C-2.13 12.608 -4.323 10.974 -6.75 8.562 C-7.364 7.966 -7.977 7.369 -8.609 6.754 C-10 5 -10 5 -10 2 C-9.681 1.97 -9.681 1.97 -8.066 1.816 C-7.653 1.775 -7.653 1.775 -5.562 1.562 C-4.739 1.481 -3.915 1.4 -3.066 1.316 C-1 1 -1 1 0 0 Z " fill="#F0D712" transform="translate(61,26)"/>
<path d="M0 0 C1.65 0 3.3 0 5 0 C5 4.62 5 9.24 5 14 C4.01 14.33 3.02 14.66 2 15 C2.14 16.646 2.287 18.292 2.438 19.938 C2.519 20.854 2.6 21.771 2.684 22.715 C3 25 3 25 4 26 C5.18 26.229 6.37 26.411 7.562 26.562 C8.203 26.646 8.844 26.73 9.504 26.816 C9.751 26.847 9.751 26.847 11 27 C11 27.33 11 27.66 11 28 C7.7 28.66 4.4 29.32 1 30 C-1.248 25.504 -1.248 25.504 -1.16 22.145 C-1.149 21.44 -1.138 20.736 -1.127 20.01 C-1.106 19.285 -1.084 18.56 -1.062 17.812 C-1.028 16.361 -0.998 14.909 -0.973 13.457 C-0.955 12.817 -0.937 12.178 -0.918 11.519 C-1 10 -1 10 -2 9 C-2.098 7.371 -2.098 7.371 -2.062 5.438 C-2.053 4.797 -2.044 4.156 -2.035 3.496 C-2.024 3.002 -2.012 2.509 -2 2 C-1.34 2 -0.68 2 0 2 C0 1.34 0 0.68 0 0 Z " fill="#474A33" transform="translate(27,0)"/>
<path d="M0 0 C2.31 0 4.62 0 7 0 C7 0.66 7 1.32 7 2 C6.34 2 5.68 2 5 2 C5.141 3.146 5.288 4.292 5.438 5.438 C5.519 6.076 5.6 6.714 5.684 7.371 C6 9 6 9 7 10 C7.082 11.471 7.082 11.471 7.027 13.352 C7.015 14.039 7.003 14.726 6.99 15.434 C6.956 16.871 6.917 18.309 6.873 19.746 C6.798 24.507 7.418 28.505 9 33 C8.01 33 7.02 33 6 33 C6 31.35 6 29.7 6 28 C5.01 27.67 4.02 27.34 3 27 C3.012 26.301 3.023 25.603 3.035 24.883 C3.044 23.973 3.053 23.063 3.062 22.125 C3.074 21.22 3.086 20.315 3.098 19.383 C3 17 3 17 2 15 C1.67 15.165 1.67 15.165 0 16 C0 10.72 0 5.44 0 0 Z " fill="#F8F9F1" transform="translate(20,0)"/>
<path d="M0 0 C0.66 0 1.32 0 2 0 C0.812 2.46 -0.433 4.761 -2 7 C-1.567 6.67 -1.134 6.34 -0.688 6 C1 5 1 5 4 5 C4 5.66 4 6.32 4 7 C5.98 7 7.96 7 10 7 C10.33 7.66 10.66 8.32 11 9 C11.99 9.66 12.98 10.32 14 11 C6.74 11 -0.52 11 -8 11 C-8.33 10.34 -8.66 9.68 -9 9 C-10.562 8.375 -10.562 8.375 -12 8 C-12 7.34 -12 6.68 -12 6 C-11.34 6 -10.68 6 -10 6 C-10 4.68 -10 3.36 -10 2 C-8.68 2.33 -7.36 2.66 -6 3 C-6.99 3 -7.98 3 -9 3 C-9 3.66 -9 4.32 -9 5 C-7.873 4.548 -6.748 4.088 -5.625 3.625 C-4.999 3.37 -4.372 3.115 -3.727 2.852 C-2 2 -2 2 0 0 Z " fill="#CCCC22" transform="translate(90,108)"/>
<path d="M0 0 C2.31 0 4.62 0 7 0 C7 2.64 7 5.28 7 8 C6.67 8 6.34 8 6 8 C6 6.35 6 4.7 6 3 C5.01 3 4.02 3 3 3 C3.023 3.554 3.046 4.109 3.07 4.68 C3.088 5.404 3.106 6.129 3.125 6.875 C3.148 7.594 3.171 8.314 3.195 9.055 C3 11 3 11 1 13 C-0.541 13.347 -0.541 13.347 -2.336 13.492 C-2.988 13.558 -3.64 13.624 -4.312 13.691 C-5.679 13.813 -7.046 13.928 -8.414 14.035 C-13.09 14.523 -14.697 15.529 -18 19 C-20.578 19.391 -20.578 19.391 -23.25 19.25 C-24.142 19.214 -25.034 19.178 -25.953 19.141 C-26.291 19.117 -26.291 19.117 -28 19 C-28.33 18.34 -28.66 17.68 -29 17 C-28.385 16.951 -27.77 16.902 -27.137 16.852 C-26.328 16.777 -25.52 16.702 -24.688 16.625 C-23.887 16.555 -23.086 16.486 -22.262 16.414 C-19.935 15.988 -18.744 15.577 -17 14 C-16.67 13.01 -16.34 12.02 -16 11 C-13.36 10.835 -13.36 10.835 0 10 C0 6.7 0 3.4 0 0 Z " fill="#464730" transform="translate(58,14)"/>
<path d="M0 0 C0.534 -0.003 1.069 -0.005 1.619 -0.008 C3.343 -0.008 5.065 0.023 6.789 0.059 C7.372 0.064 7.956 0.07 8.557 0.076 C17.266 0.165 26.175 0.372 34.414 3.496 C34.579 3.826 34.579 3.826 35.414 5.496 C37.058 6.218 38.725 6.89 40.414 7.496 C40.414 8.486 40.414 9.476 40.414 10.496 C39.886 10.209 39.357 9.921 38.812 9.625 C35.95 8.277 33.062 7.35 30.039 6.434 C29.763 6.347 29.763 6.347 28.367 5.908 C24.734 4.795 21.174 4.047 17.414 3.496 C17.414 2.836 17.414 2.176 17.414 1.496 C14.039 1.805 10.664 2.119 7.289 2.434 C6.813 2.477 6.813 2.477 4.406 2.697 C-0.297 3.138 -4.941 3.628 -9.586 4.496 C-6.529 0.85 -4.933 -0.009 0 0 Z " fill="#C16F08" transform="translate(63.5859375,94.50390625)"/>
<path d="M0 0 C0.33 0 0.66 0 1 0 C1 1.65 1 3.3 1 5 C1.99 5 2.98 5 4 5 C4 5.99 4 6.98 4 8 C5.32 8.33 6.64 8.66 8 9 C7.858 10.105 7.711 11.209 7.562 12.312 C7.481 12.927 7.4 13.542 7.316 14.176 C7.023 15.87 6.59 17.388 6 19 C6.66 19.33 7.32 19.66 8 20 C7.34 20 6.68 20 6 20 C5.959 20.309 5.959 20.309 5.75 21.875 C5 24 5 24 3.224 25.107 C0.903 26.039 -0.84 26.307 -3.328 26.414 C-3.728 26.433 -3.728 26.433 -5.75 26.531 C-6.162 26.547 -6.162 26.547 -8.25 26.625 C-9.09 26.664 -9.931 26.702 -10.797 26.742 C-12.864 26.836 -14.932 26.922 -17 27 C-17 26.34 -17 25.68 -17 25 C-16.495 24.975 -15.991 24.95 -15.471 24.924 C-13.189 24.808 -10.907 24.685 -8.625 24.562 C-7.831 24.523 -7.037 24.484 -6.219 24.443 C-5.458 24.401 -4.698 24.36 -3.914 24.316 C-3.212 24.28 -2.511 24.243 -1.788 24.205 C0 24 0 24 2 23 C2.054 20.916 2.094 18.834 2.125 16.75 C2.142 16.163 2.159 15.577 2.176 14.973 C2.216 11.375 1.794 9.195 0 6 C-0.235 3.948 -0.094 2.076 0 0 Z " fill="#CCD4BD" transform="translate(90,0)"/>
<path d="M0 0 C0.433 0.454 0.866 0.907 1.312 1.375 C2.807 2.814 4.243 3.912 6 5 C5 11.429 5 11.429 4 14 C4.66 14.33 5.32 14.66 6 15 C2.434 15 1.021 13.809 -1.625 11.688 C-2.032 11.379 -2.44 11.07 -2.859 10.752 C-5.032 9.044 -6.503 7.786 -7 5 C-4.509 4.313 -2.621 4 0 4 C-0.33 3.01 -0.66 2.02 -1 1 C-0.67 0.67 -0.34 0.34 0 0 Z " fill="#A85401" transform="translate(110,98)"/>
<path d="M0 0 C0.33 0.66 0.66 1.32 1 2 C1.804 1.979 2.609 1.959 3.438 1.938 C6 2 6 2 7 3 C7.139 5.006 7.043 6.987 7 9 C8.32 9 9.64 9 11 9 C11 9.99 11 10.98 11 12 C11.784 12.103 12.567 12.206 13.375 12.312 C16 13 16 13 17.312 14.562 C17.426 14.8 17.426 14.8 18 16 C16.68 16 15.36 16 14 16 C14 15.34 14 14.68 14 14 C12.68 14.33 11.36 14.66 10 15 C10 13.35 10 11.7 10 10 C8.35 10.33 6.7 10.66 5 11 C5 9.35 5 7.7 5 6 C3.02 6 1.04 6 -1 6 C-1 5.34 -1 4.68 -1 4 C-1.949 3.979 -2.897 3.959 -3.875 3.938 C-4.409 3.926 -4.942 3.914 -5.492 3.902 C-7 4 -7 4 -9 5 C-9 3.68 -9 2.36 -9 1 C-7.515 0.835 -7.515 0.835 0 0 Z " fill="#E9E321" transform="translate(93,101)"/>
<path d="M0 0 C3.63 0 7.26 0 11 0 C11 1.98 11 3.96 11 6 C11.364 5.964 11.364 5.964 13.203 5.781 C20.491 5.096 27.683 4.883 35 5 C34.67 5.99 34.34 6.98 34 8 C33.606 7.837 33.212 7.674 32.805 7.506 C30.519 6.865 28.488 6.888 26.113 6.902 C25.175 6.906 24.238 6.909 23.271 6.912 C22.783 6.916 22.783 6.916 20.312 6.938 C19.818 6.94 19.818 6.94 17.318 6.951 C14.879 6.963 12.439 6.979 10 7 C10 6.34 10 5.68 10 5 C6.7 5 3.4 5 0 5 C0 3.35 0 1.7 0 0 Z " fill="#626144" transform="translate(49,0)"/>
<path d="M0 0 C1.113 0.007 2.227 0.019 3.34 0.035 C3.624 0.037 3.624 0.037 5.061 0.049 C6.466 0.061 7.872 0.079 9.277 0.098 C8.402 3.973 8.402 3.973 7.277 5.098 C7.937 5.758 8.597 6.418 9.277 7.098 C8.277 8.098 8.277 8.098 5.902 8.223 C3.661 8.116 2.334 7.813 0.277 7.098 C-1.055 7.06 -2.39 7.052 -3.723 7.098 C-3.82 2.508 -3.82 2.508 -3.723 1.098 C-2.723 0.098 -2.723 0.098 0 0 Z " fill="#7A780B" transform="translate(70.72265625,100.90234375)"/>
<path d="M0 0 C0 0.66 0 1.32 0 2 C1.32 2 2.64 2 4 2 C3.625 4.438 3.625 4.438 3 7 C0.807 8.096 -0.278 8.117 -2.695 8.098 C-3.411 8.094 -4.126 8.091 -4.863 8.088 C-5.61 8.08 -6.356 8.071 -7.125 8.062 C-7.879 8.058 -8.633 8.053 -9.41 8.049 C-11.274 8.037 -13.137 8.021 -15 8 C-13.68 7.67 -12.36 7.34 -11 7 C-11 5.68 -11 4.36 -11 3 C-10.34 3 -9.68 3 -9 3 C-9 3.66 -9 4.32 -9 5 C-8.01 5 -7.02 5 -6 5 C-5.711 4.361 -5.422 3.721 -5.125 3.062 C-3.723 0.492 -2.919 0 0 0 Z " fill="#888611" transform="translate(71,111)"/>
<path d="M0 0 C4.95 0 9.9 0 15 0 C14.67 0.99 14.34 1.98 14 3 C13.34 2.67 12.68 2.34 12 2 C12 3.32 12 4.64 12 6 C8.04 6 4.08 6 0 6 C0 4.02 0 2.04 0 0 Z " fill="#D0CFCB" transform="translate(60,0)"/>
<path d="M0 0 C0.33 0.66 0.66 1.32 1 2 C0.34 2 -0.32 2 -1 2 C-1.071 2.45 -1.142 2.9 -1.215 3.363 C-2.391 5.816 -4.093 6.179 -6.562 7.188 C-7.389 7.532 -8.215 7.876 -9.066 8.23 C-9.704 8.484 -10.343 8.738 -11 9 C-10.67 9.33 -10.34 9.66 -10 10 C-9.861 12.006 -9.957 13.987 -10 16 C-12.64 16 -15.28 16 -18 16 C-15.013 9.279 -10.199 4.826 -4 1 C-1.75 0.328 -1.75 0.328 0 0 Z " fill="#F6CF17" transform="translate(48,103)"/>
<path d="M0 0 C1.32 0 2.64 0 4 0 C4.133 0.471 4.266 0.941 4.402 1.426 C4.579 2.048 4.756 2.671 4.938 3.312 C5.025 3.62 5.025 3.62 5.465 5.176 C5.785 6.267 6.131 7.352 6.527 8.418 C7.024 10.082 7.115 11.405 7.098 13.137 C7.094 13.714 7.091 14.29 7.088 14.885 C7.08 15.48 7.071 16.075 7.062 16.688 C7.058 17.294 7.053 17.901 7.049 18.525 C7.037 20.017 7.019 21.508 7 23 C6.67 23 6.34 23 6 23 C5.945 22.789 5.945 22.789 5.668 21.723 C5.509 21.175 5.351 20.627 5.188 20.062 C5.037 19.517 4.886 18.972 4.73 18.41 C4 17 4 17 2.426 16.309 C1.955 16.207 1.485 16.105 1 16 C1.66 15.67 2.32 15.34 3 15 C3 13.35 3 11.7 3 10 C2.01 9.67 1.02 9.34 0 9 C0 6.03 0 3.06 0 0 Z " fill="#636A57" transform="translate(86,0)"/>
<path d="M0 0 C0.66 0 1.32 0 2 0 C2.33 2.97 2.66 5.94 3 9 C-0.744 10.872 -1.84 11.24 -5.75 11.125 C-6.549 11.107 -7.348 11.089 -8.172 11.07 C-8.775 11.047 -9.378 11.024 -10 11 C-7.93 14.622 -5.662 17.787 -3 21 C-6.313 21 -6.692 20.743 -9.062 18.688 C-9.569 18.258 -10.076 17.829 -10.598 17.387 C-12 16 -12 16 -12.996 14.457 C-14.135 12.803 -15.318 12.064 -17 11 C-16.551 10.945 -16.102 10.889 -15.639 10.832 C-13.613 10.58 -11.588 10.321 -9.562 10.062 C-8.855 9.975 -8.148 9.888 -7.42 9.799 C-6.746 9.712 -6.073 9.625 -5.379 9.535 C-4.756 9.457 -4.133 9.378 -3.49 9.297 C-2 9 -2 9 -1 8 C-0.769 6.653 -0.588 5.296 -0.438 3.938 C-0.354 3.204 -0.27 2.471 -0.184 1.715 C-0.153 1.432 -0.153 1.432 0 0 Z " fill="#8F924A" transform="translate(61,17)"/>
<path d="M0 0 C2.97 0 5.94 0 9 0 C9.098 5.371 9.098 5.371 9 7 C8 8 8 8 6.152 8.098 C4.102 8.065 2.051 8.033 0 8 C0 5.36 0 2.72 0 0 Z " fill="#5B5C51" transform="translate(31,16)"/>
<path d="M0 0 C0.33 0.99 0.66 1.98 1 3 C-2.617 6.466 -6.22 6.664 -11 7 C-9.418 7.082 -7.834 7.139 -6.25 7.188 C-5.809 7.205 -5.809 7.205 -3.578 7.293 C-0.553 6.949 0.756 5.998 3 4 C2.625 5.938 2.625 5.938 2 8 C-0.691 9.345 -3.188 9.107 -6.125 9.062 C-6.688 9.058 -7.252 9.053 -7.832 9.049 C-9.221 9.037 -10.611 9.019 -12 9 C-12.59 7.105 -12.59 7.105 -13 5 C-11.562 3.312 -11.562 3.312 -10 2 C-10 1.67 -10 1.34 -10 1 C-6.7 0.67 -3.4 0.34 0 0 Z " fill="#8D9288" transform="translate(41,25)"/>
<path d="M0 0 C9.323 0.505 18.704 -0.332 28 -1 C25.252 1.36 22.365 1.429 18.898 1.633 C18.303 1.674 17.707 1.716 17.093 1.759 C15.83 1.845 14.568 1.927 13.305 2.005 C11.402 2.123 9.5 2.254 7.598 2.387 C1.059 2.83 -5.442 3.138 -12 3 C-12 2.01 -12 1.02 -12 0 C-10.751 -0.197 -9.501 -0.382 -8.25 -0.562 C-7.554 -0.667 -6.858 -0.771 -6.141 -0.879 C-3.843 -1.009 -2.216 -0.575 0 0 Z " fill="#444143" transform="translate(47,10)"/>
<path d="M0 0 C4.95 0 9.9 0 15 0 C15 6.6 15 13.2 15 20 C12 17 12 17 11.659 15.191 C11.675 14.536 11.691 13.881 11.707 13.207 C11.717 12.495 11.726 11.783 11.736 11.049 C11.761 10.311 11.787 9.573 11.812 8.812 C11.826 8.063 11.84 7.313 11.854 6.541 C11.889 4.694 11.943 2.847 12 1 C8.04 1 4.08 1 0 1 C0 0.67 0 0.34 0 0 Z " fill="#753F10" transform="translate(116,94)"/>
<path d="M0 0 C2.64 0 5.28 0 8 0 C8 2.64 8 5.28 8 8 C5.36 8 2.72 8 0 8 C0 5.36 0 2.72 0 0 Z " fill="#4D5140" transform="translate(45,15)"/>
<path d="M0 0 C2 2 2 2 2.125 4.625 C2.084 5.409 2.042 6.192 2 7 C-0.106 7.135 -2.204 7.234 -4.312 7.312 C-4.61 7.333 -4.61 7.333 -6.115 7.439 C-7.876 7.489 -9.302 7.478 -11 7 C-12.517 5.416 -13.106 4.05 -14 2 C-13.01 2.33 -12.02 2.66 -11 3 C-11 3.66 -11 4.32 -11 5 C-6.125 3.25 -6.125 3.25 -5 1 C-2.562 0.25 -2.562 0.25 0 0 Z " fill="#926504" transform="translate(129,112)"/>
<path d="M0 0 C-1.32 0.33 -2.64 0.66 -4 1 C-4 1.66 -4 2.32 -4 3 C-6.64 3 -9.28 3 -12 3 C-11.979 4.279 -11.959 5.558 -11.938 6.875 C-11.875 10.75 -11.875 10.75 -13 13 C-13.66 13 -14.32 13 -15 13 C-15 11.68 -15 10.36 -15 9 C-14.34 9 -13.68 9 -13 9 C-13 7.35 -13 5.7 -13 4 C-14.485 3.67 -14.485 3.67 -22 2 C-22 1.67 -22 1.34 -22 1 C-14.644 -0.064 -7.411 -0.103 0 0 Z " fill="#A39FA0" transform="translate(57,12)"/>
<path d="M0 0 C0.66 0 1.32 0 2 0 C0.017 8.307 0.017 8.307 -3 11 C-6.878 11.422 -10.194 10.896 -14 10 C-14 9.34 -14 8.68 -14 8 C-14.66 8 -15.32 8 -16 8 C-16 6.02 -16 4.04 -16 2 C-15.541 2.41 -15.082 2.82 -14.609 3.242 C-13.996 3.781 -13.382 4.32 -12.75 4.875 C-12.147 5.409 -11.543 5.942 -10.922 6.492 C-9.026 7.98 -7.187 9.003 -5 10 C-4.732 9.464 -4.464 8.928 -4.188 8.375 C-2.792 5.583 -1.396 2.792 0 0 Z " fill="#DCD9CD" transform="translate(68,33)"/>
<path d="M0 0 C2.97 0 5.94 0 9 0 C8.67 0.99 8.34 1.98 8 3 C7.34 3 6.68 3 6 3 C5.67 5.97 5.34 8.94 5 12 C4.67 12 4.34 12 4 12 C4 8.7 4 5.4 4 2 C3.34 2 2.68 2 2 2 C2.164 2.398 2.327 2.797 2.496 3.207 C3.12 5.426 3.096 7.385 3.062 9.688 C3.053 10.496 3.044 11.304 3.035 12.137 C3.024 12.752 3.012 13.366 3 14 C2.34 14 1.68 14 1 14 C0.963 13.301 0.925 12.603 0.887 11.883 C0.821 10.973 0.755 10.063 0.688 9.125 C0.629 8.22 0.571 7.315 0.512 6.383 C0 4 0 4 -1.543 2.68 C-2.024 2.455 -2.505 2.231 -3 2 C-2.01 2 -1.02 2 0 2 C0 1.34 0 0.68 0 0 Z " fill="#BFBEBD" transform="translate(75,8)"/>
<path d="M0 0 C1.812 0.188 1.812 0.188 4 1 C5.258 2.59 6.067 4.181 7 6 C6.01 6.33 5.02 6.66 4 7 C4 6.34 4 5.68 4 5 C3.34 5 2.68 5 2 5 C2.33 6.32 2.66 7.64 3 9 C2.579 8.679 2.157 8.357 1.723 8.026 C-0.2 6.881 -1.358 6.7 -3.574 6.586 C-3.908 6.567 -3.908 6.567 -5.596 6.469 C-5.941 6.453 -5.941 6.453 -7.688 6.375 C-8.038 6.356 -8.038 6.356 -9.814 6.258 C-11.543 6.164 -13.271 6.078 -15 6 C-15 5.67 -15 5.34 -15 5 C-14.157 4.939 -13.314 4.879 -12.445 4.816 C-11.339 4.732 -10.232 4.647 -9.125 4.562 C-8.569 4.523 -8.014 4.484 -7.441 4.443 C-5.027 4.254 -3.187 4.094 -1 3 C-0.375 1.438 -0.375 1.438 0 0 Z " fill="#E9ECDC" transform="translate(44,29)"/>
<path d="M0 0 C1.98 0 3.96 0 6 0 C6.124 0.474 6.248 0.949 6.375 1.438 C7 3 7 3 9 4 C8.34 4 7.68 4 7 4 C7 4.66 7 5.32 7 6 C8.32 6.33 9.64 6.66 11 7 C11 7.66 11 8.32 11 9 C7.7 9 4.4 9 1 9 C1.66 8.34 2.32 7.68 3 7 C3.625 4.875 3.625 4.875 4 3 C2.68 3 1.36 3 0 3 C0 2.01 0 1.02 0 0 Z " fill="#D8D723" transform="translate(71,110)"/>
<path d="M0 0 C0 0.66 0 1.32 0 2 C-0.554 2.049 -1.109 2.098 -1.68 2.148 C-2.404 2.223 -3.129 2.298 -3.875 2.375 C-4.594 2.445 -5.314 2.514 -6.055 2.586 C-8 3 -8 3 -10 5 C-11.32 4.34 -12.64 3.68 -14 3 C-14.33 3.99 -14.66 4.98 -15 6 C-15.66 6 -16.32 6 -17 6 C-17 5.34 -17 4.68 -17 4 C-17.66 4 -18.32 4 -19 4 C-19 4.66 -19 5.32 -19 6 C-19.66 6.33 -19.66 6.33 -23 8 C-20.463 2.745 -20.463 2.745 -19 1 C-17.244 0.568 -17.244 0.568 -15.156 0.488 C-14.78 0.471 -14.78 0.471 -12.879 0.381 C-12.094 0.358 -11.309 0.336 -10.5 0.312 C-9.715 0.278 -8.93 0.244 -8.121 0.209 C-5.413 0.095 -2.711 0 0 0 Z " fill="#F1F6E4" transform="translate(93,25)"/>
<path d="M0 0 C2 2 2 2 2 8 C-2.29 8 -6.58 8 -11 8 C-10.67 7.34 -10.34 6.68 -10 6 C-6.7 6 -3.4 6 0 6 C0 5.01 0 4.02 0 3 C-2.97 3 -5.94 3 -9 3 C-9 2.34 -9 1.68 -9 1 C-7.544 0.778 -6.085 0.573 -4.625 0.375 C-4.219 0.317 -4.219 0.317 -2.164 0.023 C-1.45 0.016 -0.736 0.008 0 0 Z " fill="#393D2E" transform="translate(90,16)"/>
<path d="M0 0 C0.99 0.165 0.99 0.165 6 1 C6.33 1.99 6.66 2.98 7 4 C6.01 4 5.02 4 4 4 C6.967 5.648 9.656 6.443 13 7 C12.125 8.5 12.125 8.5 11 10 C10.34 10 9.68 10 9 10 C9 9.34 9 8.68 9 8 C6.03 8 3.06 8 0 8 C0 5.36 0 2.72 0 0 Z " fill="#EE7E01" transform="translate(17,103)"/>
<path d="M0 0 C6.27 0 12.54 0 19 0 C19.33 0.99 19.66 1.98 20 3 C21.98 2.67 23.96 2.34 26 2 C26 2.66 26 3.32 26 4 C24.68 4 23.36 4 22 4 C22 5.65 22 7.3 22 9 C21.34 9 20.68 9 20 9 C19.34 6.36 18.68 3.72 18 1 C12.06 1.33 6.12 1.66 0 2 C0 1.34 0 0.68 0 0 Z " fill="#F6E917" transform="translate(62,98)"/>
<path d="M0 0 C0.33 0 0.66 0 1 0 C1 4.95 1 9.9 1 15 C2.98 15 4.96 15 7 15 C7 15.33 7 15.66 7 16 C4.36 16 1.72 16 -1 16 C-1 18.64 -1 21.28 -1 24 C1.31 24 3.62 24 6 24 C6 24.33 6 24.66 6 25 C4.688 25.194 3.376 25.38 2.062 25.562 C1.332 25.667 0.601 25.771 -0.152 25.879 C-0.762 25.919 -1.372 25.959 -2 26 C-3 25 -3 25 -3.098 22.715 C-3.086 21.798 -3.074 20.882 -3.062 19.938 C-3.053 19.018 -3.044 18.099 -3.035 17.152 C-3.024 16.442 -3.012 15.732 -3 15 C-2.34 14.67 -1.68 14.34 -1 14 C-0.681 12.601 -0.681 12.601 -0.586 10.84 C-0.547 10.211 -0.509 9.583 -0.469 8.936 C-0.438 8.276 -0.407 7.617 -0.375 6.938 C-0.336 6.274 -0.298 5.611 -0.258 4.928 C-0.163 3.285 -0.078 1.643 0 0 Z " fill="#A2A39C" transform="translate(32,0)"/>
<path d="M0 0 C3.3 0 6.6 0 10 0 C10 2.31 10 4.62 10 7 C2.184 5.083 2.184 5.083 0 2 C0 1.34 0 0.68 0 0 Z " fill="#767676" transform="translate(156,0)"/>
<path d="M0 0 C0 1.65 0 3.3 0 5 C1.32 4.67 2.64 4.34 4 4 C4 4.66 4 5.32 4 6 C5.32 6.33 6.64 6.66 8 7 C7.67 7.33 7.34 7.66 7 8 C5.475 7.911 3.953 7.755 2.438 7.562 C1.611 7.461 0.785 7.359 -0.066 7.254 C-0.704 7.17 -1.343 7.086 -2 7 C-2.33 6.01 -2.66 5.02 -3 4 C-4.65 4 -6.3 4 -8 4 C-7.67 3.01 -7.34 2.02 -7 1 C-2.25 0 -2.25 0 0 0 Z " fill="#838109" transform="translate(103,111)"/>
<path d="M0 0 C0.99 0 1.98 0 3 0 C3 1.65 3 3.3 3 5 C6.3 5 9.6 5 13 5 C13 5.99 13 6.98 13 8 C11.208 8.054 9.417 8.094 7.625 8.125 C7.117 8.142 6.609 8.159 6.086 8.176 C4.723 8.194 3.359 8.102 2 8 C0 6 0 6 -0.195 4.492 C-0.13 2.995 -0.065 1.497 0 0 Z " fill="#BDBCC3" transform="translate(46,0)"/>
<path d="M0 0 C0.33 0.99 0.66 1.98 1 3 C1.66 3 2.32 3 3 3 C3.66 2.01 4.32 1.02 5 0 C5 2.97 5 5.94 5 9 C1.591 9.852 -0.804 10.108 -4.25 10.062 C-5.142 10.053 -6.034 10.044 -6.953 10.035 C-7.629 10.024 -8.304 10.012 -9 10 C-9 9.34 -9 8.68 -9 8 C-6.03 8 -3.06 8 0 8 C0 5.36 0 2.72 0 0 Z " fill="#B6B7B1" transform="translate(53,15)"/>
<path d="M0 0 C0 1.98 0 3.96 0 6 C-1.65 6.33 -3.3 6.66 -5 7 C-5.33 8.32 -5.66 9.64 -6 11 C-6.66 11 -7.32 11 -8 11 C-8 9.02 -8 7.04 -8 5 C-8.66 4.67 -9.32 4.34 -10 4 C-8.901 3.325 -7.795 2.661 -6.688 2 C-6.073 1.629 -5.458 1.257 -4.824 0.875 C-3 0 -3 0 0 0 Z " fill="#E0DF1D" transform="translate(46,108)"/>
<path d="M0 0 C2.64 0 5.28 0 8 0 C8 1.98 8 3.96 8 6 C5.36 6 2.72 6 0 6 C0 4.02 0 2.04 0 0 Z " fill="#363921" transform="translate(35,0)"/>
<path d="M0 0 C1.32 0.33 2.64 0.66 4 1 C3.639 1.258 3.639 1.258 1.812 2.562 C-1.068 4.823 -2.859 7.527 -4.789 10.609 C-5.189 11.068 -5.588 11.527 -6 12 C-6.99 12 -7.98 12 -9 12 C-8.34 9.36 -7.68 6.72 -7 4 C-5.02 3.67 -3.04 3.34 -1 3 C-0.67 2.01 -0.34 1.02 0 0 Z " fill="#E48F00" transform="translate(36,107)"/>
<path d="M0 0 C0 0.66 0 1.32 0 2 C-6.27 2 -12.54 2 -19 2 C-19 2.66 -19 3.32 -19 4 C-21.64 4 -24.28 4 -27 4 C-18.589 -0.539 -9.286 -0.262 0 0 Z " fill="#EAB313" transform="translate(81,96)"/>
<path d="M0 0 C13.179 -0.239 13.179 -0.239 17 1 C17.33 1.66 17.66 2.32 18 3 C19.644 3.722 21.311 4.394 23 5 C23 5.99 23 6.98 23 8 C22.471 7.713 21.943 7.425 21.398 7.129 C18.535 5.781 15.648 4.854 12.625 3.938 C12.073 3.764 11.522 3.591 10.953 3.412 C7.32 2.299 3.76 1.551 0 1 C0 0.67 0 0.34 0 0 Z " fill="#D08301" transform="translate(81,97)"/>
<path d="M0 0 C0.66 0 1.32 0 2 0 C2.33 2.97 2.66 5.94 3 9 C6.3 9 9.6 9 13 9 C13 9.99 13 10.98 13 12 C11.375 12.027 9.75 12.046 8.125 12.062 C7.673 12.068 7.673 12.068 5.383 12.098 C3 12 3 12 1 11 C0.687 9.108 0.489 7.341 0.375 5.438 C0.336 4.917 0.298 4.397 0.258 3.861 C0.163 2.575 0.081 1.287 0 0 Z " fill="#A7A9A1" transform="translate(77,10)"/>
<path d="M0 0 C2.31 0 4.62 0 7 0 C7.33 0.99 7.66 1.98 8 3 C8.99 2.67 9.98 2.34 11 2 C11 3.65 11 5.3 11 7 C6.25 6.25 6.25 6.25 4 4 C2.683 3.303 1.351 2.63 0 2 C0 1.34 0 0.68 0 0 Z " fill="#A34A04" transform="translate(106,95)"/>
<path d="M0 0 C9.57 0 19.14 0 29 0 C29 0.33 29 0.66 29 1 C22.496 1.839 16.197 2.096 9.648 1.875 C8.098 1.844 6.548 1.915 5 2 C4.34 2.66 3.68 3.32 3 4 C2.01 4 1.02 4 0 4 C0 2.68 0 1.36 0 0 Z " fill="#D2640E" transform="translate(16,95)"/>
<path d="M0 0 C1.283 2.567 1.028 4.325 0.938 7.188 C0.882 11.908 1.424 15.568 3 20 C2.01 20 1.02 20 0 20 C0 18.35 0 16.7 0 15 C-0.99 14.67 -1.98 14.34 -3 14 C-2.692 11.853 -2.379 9.708 -2.062 7.562 C-1.975 6.951 -1.888 6.339 -1.799 5.709 C-1.113 1.113 -1.113 1.113 0 0 Z " fill="#C9CFBD" transform="translate(26,13)"/>
<path d="M0 0 C3.46 1.184 5.083 1.933 7 5 C9.125 6.188 9.125 6.188 11 7 C10.67 7.99 10.34 8.98 10 10 C10.66 10.33 11.32 10.66 12 11 C8.434 11 7.021 9.809 4.375 7.688 C3.968 7.379 3.56 7.07 3.141 6.752 C0.968 5.044 -0.503 3.786 -1 1 C-0.67 0.67 -0.34 0.34 0 0 Z " fill="#AA7401" transform="translate(104,102)"/>
<path d="M0 0 C0.33 0.66 0.66 1.32 1 2 C2.65 2 4.3 2 6 2 C5.711 2.124 5.711 2.124 4.25 2.75 C2 4 2 4 0.375 6.125 C-1.233 7.89 -2.031 8.003 -4.477 8.258 C-6.996 8.251 -9.487 8.173 -12 8 C-12.33 7.34 -12.66 6.68 -13 6 C-12.385 5.951 -11.77 5.902 -11.137 5.852 C-10.328 5.777 -9.52 5.702 -8.688 5.625 C-7.887 5.555 -7.086 5.486 -6.262 5.414 C-3.963 4.993 -2.765 4.5 -1 3 C-0.312 1.375 -0.312 1.375 0 0 Z " fill="#3E4632" transform="translate(42,25)"/>
<path d="M0 0 C2.75 -0.36 5.266 -0.532 8 0 C9.971 1.852 10.767 3.534 12 6 C9.36 6 6.72 6 4 6 C4.33 5.01 4.66 4.02 5 3 C4.546 2.876 4.093 2.752 3.625 2.625 C2 2 2 2 0 0 Z " fill="#EFE72A" transform="translate(106,113)"/>
<path d="M0 0 C0.99 0.165 0.99 0.165 6 1 C4.547 4.698 2.42 7.04 -1 9 C-3.312 9.25 -3.312 9.25 -5 9 C-5 8.34 -5 7.68 -5 7 C-3.02 6.01 -1.04 5.02 1 4 C0.34 3.67 -0.32 3.34 -1 3 C-0.67 2.01 -0.34 1.02 0 0 Z " fill="#828202" transform="translate(86,104)"/>
<path d="M0 0 C2.64 0 5.28 0 8 0 C6.822 2.356 5.843 4.093 4 6 C1.888 6.356 0.161 6.192 -2 6 C-1.494 3.831 -1 2 0 0 Z " fill="#5F5E11" transform="translate(69,102)"/>
<path d="M0 0 C1.98 0 3.96 0 6 0 C6 2.64 6 5.28 6 8 C5.67 8 5.34 8 5 8 C5 6.35 5 4.7 5 3 C4.01 3 3.02 3 2 3 C2 5.64 2 8.28 2 11 C1.34 11 0.68 11 0 11 C0 7.37 0 3.74 0 0 Z " fill="#3A4322" transform="translate(59,14)"/>
<path d="M0 0 C-0.33 0.165 -0.33 0.165 -2 1 C-3.062 2.938 -3.062 2.938 -4 5 C-4.33 5.66 -4.66 6.32 -5 7 C-5.99 7 -6.98 7 -8 7 C-8 6.34 -8 5.68 -8 5 C-8.66 5 -9.32 5 -10 5 C-10 4.01 -10 3.02 -10 2 C-6.492 0.396 -3.856 -0.22 0 0 Z " fill="#E3DE27" transform="translate(70,109)"/>
<path d="M0 0 C1.32 0 2.64 0 4 0 C4 2.64 4 5.28 4 8 C2.35 8.33 0.7 8.66 -1 9 C-1.625 7.812 -1.625 7.812 -2 6 C-1.062 3.375 -1.062 3.375 0 1 C0 0.67 0 0.34 0 0 Z " fill="#935102" transform="translate(115,103)"/>
<path d="M0 0 C11.522 -0.369 11.522 -0.369 17 2 C16.67 2.99 16.34 3.98 16 5 C15.34 5 14.68 5 14 5 C14 4.34 14 3.68 14 3 C13.576 3.023 13.152 3.046 12.715 3.07 C8.135 3.211 4.328 2.473 0 1 C0 0.67 0 0.34 0 0 Z " fill="#C35E0B" transform="translate(84,95)"/>
<path d="M0 0 C1.619 2.572 2.044 3.677 1.625 6.75 C1.419 7.493 1.213 8.235 1 9 C2.32 8.34 3.64 7.68 5 7 C4.34 8.32 3.68 9.64 3 11 C1.188 11.25 1.188 11.25 -1 11 C-2.75 9 -2.75 9 -4 7 C-3.67 6.34 -3.34 5.68 -3 5 C-2.01 5 -1.02 5 0 5 C0 3.35 0 1.7 0 0 Z " fill="#845304" transform="translate(119,106)"/>
<path d="M0 0 C4.29 0.33 8.58 0.66 13 1 C13 1.99 13 2.98 13 4 C11.042 4.027 9.084 4.047 7.125 4.062 C6.569 4.071 6.014 4.079 5.441 4.088 C1.227 4.113 1.227 4.113 -1 3 C-0.67 2.01 -0.34 1.02 0 0 Z " fill="#2D2C29" transform="translate(46,7)"/>
<path d="M0 0 C2.97 0 5.94 0 9 0 C8.67 1.32 8.34 2.64 8 4 C5.36 4 2.72 4 0 4 C0 2.68 0 1.36 0 0 Z " fill="#5E6250" transform="translate(62,0)"/>
<path d="M0 0 C0.66 0 1.32 0 2 0 C2 2.31 2 4.62 2 7 C4.64 7 7.28 7 10 7 C10 7.33 10 7.66 10 8 C9.446 8.11 8.891 8.219 8.32 8.332 C7.596 8.491 6.871 8.649 6.125 8.812 C5.406 8.963 4.686 9.114 3.945 9.27 C2 10 2 10 0 13 C0 8.71 0 4.42 0 0 Z " fill="#D3D2D2" transform="translate(33,0)"/>
<path d="M0 0 C1.32 0.33 2.64 0.66 4 1 C4 4.3 4 7.6 4 11 C3.34 11 2.68 11 2 11 C-0.337 7.349 -0.211 4.177 0 0 Z " fill="#9B9B64" transform="translate(25,2)"/>
<path d="M0 0 C2.97 0 5.94 0 9 0 C8.34 0.66 7.68 1.32 7 2 C6.01 2 5.02 2 4 2 C4.258 2.392 4.258 2.392 5.562 4.375 C6.037 5.241 6.511 6.108 7 7 C6.67 7.66 6.34 8.32 6 9 C4.991 8.072 3.993 7.132 3 6.188 C2.722 5.926 2.722 5.926 1.312 4.605 C0 3 0 3 0 0 Z " fill="#D4C535" transform="translate(51,28)"/>
<path d="M0 0 C3.3 0 6.6 0 10 0 C10 0.99 10 1.98 10 3 C6.37 3 2.74 3 -1 3 C-0.67 2.01 -0.34 1.02 0 0 Z " fill="#989898" transform="translate(156,19)"/>
<path d="M0 0 C2.062 0.438 2.062 0.438 4 1 C3.67 2.65 3.34 4.3 3 6 C1.35 6 -0.3 6 -2 6 C-1.125 1.125 -1.125 1.125 0 0 Z " fill="#6E6A09" transform="translate(42,113)"/>
<path d="M0 0 C0.125 5.75 0.125 5.75 -1 8 C-1.99 8 -2.98 8 -4 8 C-4.33 5.69 -4.66 3.38 -5 1 C-2 0 -2 0 0 0 Z " fill="#6F6309" transform="translate(54,106)"/>
<path d="M0 0 C1.438 0.312 1.438 0.312 3 1 C3.692 2.523 4 3.998 4.375 5.625 C5 7 5 7 6.562 7.688 C7.037 7.791 7.511 7.894 8 8 C1.714 10.429 1.714 10.429 -2 9 C-1.34 8.67 -0.68 8.34 0 8 C0.633 6.59 0.633 6.59 1.125 4.938 C1.293 4.39 1.46 3.842 1.633 3.277 C1.754 2.856 1.875 2.434 2 2 C1.01 1.67 0.02 1.34 -1 1 C-0.67 0.67 -0.34 0.34 0 0 Z " fill="#A5A01D" transform="translate(62,101)"/>
<path d="M0 0 C-4.632 3.579 -9.412 5.361 -15 7 C-15 6.34 -15 5.68 -15 5 C-12.791 3.106 -12.041 3 -9 3 C-9 2.34 -9 1.68 -9 1 C-5.574 -0.618 -3.619 -1.341 0 0 Z " fill="#D98301" transform="translate(54,100)"/>
<path d="M0 0 C0.33 0 0.66 0 1 0 C1 5 1 10 1 15 C0.67 15.165 0.67 15.165 -1 16 C-1.66 15.34 -2.32 14.68 -3 14 C-2.67 13.34 -2.34 12.68 -2 12 C-3.65 12 -5.3 12 -7 12 C-7 11.67 -7 11.34 -7 11 C-5.02 10.34 -3.04 9.68 -1 9 C-0.67 6.03 -0.34 3.06 0 0 Z " fill="#9E9D5D" transform="translate(71,15)"/>
<path d="M0 0 C0.99 0 1.98 0 3 0 C3 2.64 3 5.28 3 8 C1.68 7.67 0.36 7.34 -1 7 C-0.67 6.01 -0.34 5.02 0 4 C-1.32 4 -2.64 4 -4 4 C-4 3.34 -4 2.68 -4 2 C-2.68 2 -1.36 2 0 2 C0 1.34 0 0.68 0 0 Z " fill="#D5D32C" transform="translate(57,110)"/>
<path d="M0 0 C0.248 0.495 0.495 0.99 0.75 1.5 C1.162 1.995 1.575 2.49 2 3 C4.125 3.188 4.125 3.188 6 3 C6 3.99 6 4.98 6 6 C6.784 6.103 7.567 6.206 8.375 6.312 C11 7 11 7 12.312 8.562 C12.426 8.8 12.426 8.8 13 10 C11.68 10 10.36 10 9 10 C9 9.34 9 8.68 9 8 C7.68 8.33 6.36 8.66 5 9 C5 7.35 5 5.7 5 4 C3.35 4.33 1.7 4.66 0 5 C0 3.35 0 1.7 0 0 Z " fill="#C5C627" transform="translate(98,107)"/>
<path d="M0 0 C0.33 0 0.66 0 1 0 C1 2.97 1 5.94 1 9 C2.32 8.67 3.64 8.34 5 8 C5 8.66 5 9.32 5 10 C8.3 10.33 11.6 10.66 15 11 C15 11.33 15 11.66 15 12 C11.04 12 7.08 12 3 12 C3 11.34 3 10.68 3 10 C2.01 10 1.02 10 0 10 C0 6.7 0 3.4 0 0 Z " fill="#6C7261" transform="translate(75,13)"/>
<path d="M0 0 C0.33 0 0.66 0 1 0 C1 2.64 1 5.28 1 8 C4.3 8.66 7.6 9.32 11 10 C11 10.33 11 10.66 11 11 C7.7 11.66 4.4 12.32 1 13 C-0.005 9.985 -0.103 7.958 -0.062 4.812 C-0.053 3.911 -0.044 3.01 -0.035 2.082 C-0.024 1.395 -0.012 0.708 0 0 Z " fill="#3F413A" transform="translate(27,17)"/>
<path d="M0 0 C3.63 0.33 7.26 0.66 11 1 C11.33 1.99 11.66 2.98 12 4 C10.35 4 8.7 4 7 4 C7 3.34 7 2.68 7 2 C5.02 2.33 3.04 2.66 1 3 C0.67 2.01 0.34 1.02 0 0 Z " fill="#FAE217" transform="translate(81,98)"/>
<path d="M0 0 C0.99 0 1.98 0 3 0 C2.67 1.32 2.34 2.64 2 4 C3.32 4 4.64 4 6 4 C6.33 2.68 6.66 1.36 7 0 C7 1.98 7 3.96 7 6 C4.69 6 2.38 6 0 6 C0 4.02 0 2.04 0 0 Z " fill="#333721" transform="translate(45,16)"/>
<path d="M0 0 C1.32 0 2.64 0 4 0 C3.67 1.98 3.34 3.96 3 6 C1.68 6.33 0.36 6.66 -1 7 C-0.67 4.69 -0.34 2.38 0 0 Z " fill="#635C12" transform="translate(60,103)"/>
<path d="M0 0 C1.98 1.65 3.96 3.3 6 5 C5.34 6.32 4.68 7.64 4 9 C3.34 8.67 2.68 8.34 2 8 C2 7.34 2 6.68 2 6 C1.34 6 0.68 6 0 6 C0 4.02 0 2.04 0 0 Z " fill="#EBE9E7" transform="translate(52,35)"/>
<path d="M0 0 C2.31 0 4.62 0 7 0 C6.67 0.99 6.34 1.98 6 3 C5.34 3 4.68 3 4 3 C3.67 5.97 3.34 8.94 3 12 C2.67 12 2.34 12 2 12 C2 8.37 2 4.74 2 1 C1.34 0.67 0.68 0.34 0 0 Z " fill="#DAD8D8" transform="translate(77,8)"/>
<path d="M0 0 C0.66 0 1.32 0 2 0 C2 1.98 2 3.96 2 6 C-0.64 6 -3.28 6 -6 6 C-4.688 4.5 -4.688 4.5 -3 3 C-2.01 3 -1.02 3 0 3 C0 2.01 0 1.02 0 0 Z " fill="#F5EF07" transform="translate(36,113)"/>
<path d="M0 0 C2.31 0 4.62 0 7 0 C7 0.66 7 1.32 7 2 C6.34 2 5.68 2 5 2 C5 3.98 5 5.96 5 8 C4.34 7.34 3.68 6.68 3 6 C3.33 5.01 3.66 4.02 4 3 C3.34 3 2.68 3 2 3 C1.67 3.99 1.34 4.98 1 6 C0.67 4.02 0.34 2.04 0 0 Z " fill="#F3F1E9" transform="translate(20,0)"/>
<path d="M0 0 C2 2 2 2 2.125 4.625 C2.084 5.409 2.042 6.192 2 7 C-0.64 7 -3.28 7 -6 7 C-3.861 4.861 -2.867 4.573 0 4 C0 2.68 0 1.36 0 0 Z " fill="#92650F" transform="translate(129,112)"/>
<path d="M0 0 C2.31 0 4.62 0 7 0 C6.67 0.66 6.34 1.32 6 2 C5.01 2 4.02 2 3 2 C2.67 2.99 2.34 3.98 2 5 C3.65 5 5.3 5 7 5 C7 5.33 7 5.66 7 6 C4.69 6 2.38 6 0 6 C0 4.02 0 2.04 0 0 Z " fill="#2E331F" transform="translate(31,17)"/>
<path d="M0 0 C1.65 0 3.3 0 5 0 C5.33 0.99 5.66 1.98 6 3 C3.69 3.33 1.38 3.66 -1 4 C-0.67 2.68 -0.34 1.36 0 0 Z " fill="#F4F111" transform="translate(49,115)"/>
<path d="M0 0 C0.99 0 1.98 0 3 0 C0.437 5.31 0.437 5.31 -1 7 C-1.99 7 -2.98 7 -4 7 C-2.926 4.085 -2.222 2.222 0 0 Z " fill="#DE9E00" transform="translate(31,112)"/>
<path d="M0 0 C1.32 0 2.64 0 4 0 C3.67 1.32 3.34 2.64 3 4 C1.68 4 0.36 4 -1 4 C-1 4.66 -1 5.32 -1 6 C-1.66 6 -2.32 6 -3 6 C-2.67 4.68 -2.34 3.36 -2 2 C-1.34 2 -0.68 2 0 2 C0 1.34 0 0.68 0 0 Z " fill="#E6E229" transform="translate(49,103)"/>
<path d="M0 0 C2.64 0 5.28 0 8 0 C7.67 0.99 7.34 1.98 7 3 C4.69 3 2.38 3 0 3 C0 2.01 0 1.02 0 0 Z " fill="#4A4B3F" transform="translate(76,0)"/>
<path d="M0 0 C2 2 2 2 2.125 4.625 C2.084 5.409 2.043 6.192 2 7 C0.68 7 -0.64 7 -2 7 C-2 5.35 -2 3.7 -2 2 C-1.34 2 -0.68 2 0 2 C0 1.34 0 0.68 0 0 Z " fill="#A7A523" transform="translate(48,107)"/>
<path d="M0 0 C5.478 -0.243 5.478 -0.243 7.875 0.875 C8.061 1.061 8.061 1.061 9 2 C9 2.66 9 3.32 9 4 C7.02 4 5.04 4 3 4 C3 3.01 3 2.02 3 1 C2.01 0.67 1.02 0.34 0 0 Z " fill="#ECEC12" transform="translate(101,109)"/>
<path d="M0 0 C2.64 0.33 5.28 0.66 8 1 C7.34 2.65 6.68 4.3 6 6 C5.67 5.01 5.34 4.02 5 3 C4.01 2.835 4.01 2.835 -1 2 C-0.67 1.34 -0.34 0.68 0 0 Z " fill="#DACA37" transform="translate(61,26)"/>
<path d="M0 0 C0.33 0 0.66 0 1 0 C1.33 3.96 1.66 7.92 2 12 C0.35 12.33 -1.3 12.66 -3 13 C-3.33 12.01 -3.66 11.02 -4 10 C-2.68 10 -1.36 10 0 10 C0 6.7 0 3.4 0 0 Z " fill="#5B5F3B" transform="translate(58,14)"/>
<path d="M0 0 C0 1.32 0 2.64 0 4 C-1.98 4 -3.96 4 -6 4 C-6 3.01 -6 2.02 -6 1 C-3.761 0.147 -2.508 0 0 0 Z " fill="#6C6D04" transform="translate(74,114)"/>
<path d="M0 0 C2.31 0.33 4.62 0.66 7 1 C7 2.32 7 3.64 7 5 C6.01 5 5.02 5 4 5 C3.67 4.34 3.34 3.68 3 3 C1.438 2.375 1.438 2.375 0 2 C0 1.34 0 0.68 0 0 Z " fill="#88870A" transform="translate(78,114)"/>
<path d="M0 0 C2.31 0 4.62 0 7 0 C6.438 1.438 6.438 1.438 5 3 C2.686 3.577 0.374 3.816 -2 4 C-1.34 3.67 -0.68 3.34 0 3 C0 2.01 0 1.02 0 0 Z " fill="#DDD81E" transform="translate(55,101)"/>
<path d="M0 0 C0.66 0 1.32 0 2 0 C0.906 2.891 -0.161 5.504 -2 8 C-3.32 7.34 -4.64 6.68 -6 6 C-4.68 5.67 -3.36 5.34 -2 5 C-2 4.34 -2 3.68 -2 3 C-1.34 3 -0.68 3 0 3 C0 2.01 0 1.02 0 0 Z " fill="#D9CC2A" transform="translate(64,32)"/>
<path d="M0 0 C0.33 0 0.66 0 1 0 C1 2.31 1 4.62 1 7 C1.66 7.33 2.32 7.66 3 8 C2.34 8 1.68 8 1 8 C0.67 9.32 0.34 10.64 0 12 C-0.33 12 -0.66 12 -1 12 C-1.185 3.554 -1.185 3.554 0 0 Z " fill="#F2F8E6" transform="translate(95,12)"/>
<path d="M0 0 C3.3 0 6.6 0 10 0 C10 0.99 10 1.98 10 3 C8.897 3.082 7.792 3.139 6.688 3.188 C6.073 3.222 5.458 3.257 4.824 3.293 C3 3 3 3 0 0 Z " fill="#9A989D" transform="translate(49,5)"/>
<path d="M0 0 C1.98 0 3.96 0 6 0 C6.33 0.99 6.66 1.98 7 3 C4.69 3 2.38 3 0 3 C0 2.01 0 1.02 0 0 Z " fill="#E4E722" transform="translate(71,110)"/>
<path d="M0 0 C0.511 0.009 1.022 0.018 1.549 0.027 C2.804 0.051 4.058 0.087 5.312 0.125 C5.312 0.455 5.312 0.785 5.312 1.125 C3.732 1.49 2.148 1.842 0.562 2.188 C-0.319 2.385 -1.201 2.582 -2.109 2.785 C-4.674 3.123 -6.258 2.937 -8.688 2.125 C-5.926 -0.269 -3.554 -0.084 0 0 Z " fill="#CC7901" transform="translate(62.6875,95.875)"/>
<path d="M0 0 C2.31 0.33 4.62 0.66 7 1 C6.67 2.32 6.34 3.64 6 5 C4.125 4.75 4.125 4.75 2 4 C0.75 1.938 0.75 1.938 0 0 Z " fill="#6E6C2B" transform="translate(57,38)"/>
<path d="M0 0 C0 0.33 0 0.66 0 1 C-1.65 1 -3.3 1 -5 1 C-5 1.99 -5 2.98 -5 4 C-5.99 3.67 -6.98 3.34 -8 3 C-8 2.01 -8 1.02 -8 0 C-5.146 -1.352 -2.988 -0.727 0 0 Z " fill="#F4D508" transform="translate(63,30)"/>
<path d="M0 0 C-0.33 0.165 -0.33 0.165 -2 1 C-2 1.66 -2 2.32 -2 3 C-3.32 2.67 -4.64 2.34 -6 2 C-6 4.64 -6 7.28 -6 10 C-6.33 10 -6.66 10 -7 10 C-7 7.03 -7 4.06 -7 1 C-4.537 -0.231 -2.72 -0.072 0 0 Z " fill="#52564B" transform="translate(75,12)"/>
<path d="M0 0 C1.65 0.33 3.3 0.66 5 1 C5 1.66 5 2.32 5 3 C1.04 3 -2.92 3 -7 3 C-7 2.67 -7 2.34 -7 2 C-4.69 2 -2.38 2 0 2 C0 1.34 0 0.68 0 0 Z " fill="#201F1C" transform="translate(59,7)"/>
<path d="M0 0 C0.66 0.33 1.32 0.66 2 1 C1.375 3.375 1.375 3.375 0 6 C-1.993 7.055 -3.78 7.469 -6 8 C-4.02 5.36 -2.04 2.72 0 0 Z " fill="#F3D00E" transform="translate(36,110)"/>
<path d="M0 0 C2.64 0.66 5.28 1.32 8 2 C8 2.33 8 2.66 8 3 C4.37 3.66 0.74 4.32 -3 5 C-3 4.34 -3 3.68 -3 3 C-2.34 3 -1.68 3 -1 3 C-0.67 2.01 -0.34 1.02 0 0 Z " fill="#CFCC2F" transform="translate(71,107)"/>
<path d="M0 0 C4.052 -0.264 4.052 -0.264 6 0 C7.375 1.5 7.375 1.5 8 3 C6.503 2.967 5.005 2.935 3.508 2.902 C2 3 2 3 0 4 C0 2.68 0 1.36 0 0 Z " fill="#E1E31D" transform="translate(84,102)"/>
<path d="M0 0 C0.99 0 1.98 0 3 0 C3 3.96 3 7.92 3 12 C1.062 8.125 0.896 7.044 1 3 C0.5 1.188 0.5 1.188 0 0 Z " fill="#7D8047" transform="translate(27,0)"/>
<path d="M0 0 C2.31 0 4.62 0 7 0 C7 1.32 7 2.64 7 4 C6.018 3.718 5.039 3.424 4.062 3.125 C3.79 3.044 3.79 3.044 2.41 2.633 C1 2 1 2 0 0 Z " fill="#EDEDED" transform="translate(159,0)"/>
<path d="M0 0 C0.66 0 1.32 0 2 0 C2 0.66 2 1.32 2 2 C3.32 2.33 4.64 2.66 6 3 C5 4 5 4 3.59 4.098 C2.06 4.065 0.53 4.033 -1 4 C-0.67 2.68 -0.34 1.36 0 0 Z " fill="#646003" transform="translate(105,115)"/>
<path d="M0 0 C0.33 0 0.66 0 1 0 C1 2.97 1 5.94 1 9 C0.01 8.01 -0.98 7.02 -2 6 C-1.579 1.579 -1.579 1.579 0 0 Z " fill="#7A4D14" transform="translate(130,105)"/>
<path d="M0 0 C1.291 -0.081 2.583 -0.139 3.875 -0.188 C4.235 -0.205 4.235 -0.205 6.055 -0.293 C8 0 8 0 9.258 1.512 C9.503 2.003 9.748 2.494 10 3 C8.68 3.33 7.36 3.66 6 4 C5.67 3.34 5.34 2.68 5 2 C2.438 1.375 2.438 1.375 0 1 C0 0.67 0 0.34 0 0 Z " fill="#974909" transform="translate(108,94)"/>
<path d="M0 0 C0.66 0 1.32 0 2 0 C2.083 0.454 2.165 0.907 2.25 1.375 C3.299 3.647 4.753 4.058 7 5 C3.514 6.202 3.514 6.202 1.25 5.312 C0 4 0 4 -0.188 1.875 C-0.126 1.256 -0.064 0.638 0 0 Z " fill="#F5FAEE" transform="translate(52,41)"/>
<path d="M0 0 C0.66 0 1.32 0 2 0 C2 1.32 2 2.64 2 4 C3.98 4 5.96 4 8 4 C8 4.33 8 4.66 8 5 C5.36 5.33 2.72 5.66 0 6 C0 4.02 0 2.04 0 0 Z " fill="#BBBAB1" transform="translate(60,0)"/>
<path d="M0 0 C1.354 1.312 2.687 2.646 4 4 C4 4.33 4 4.66 4 5 C1.36 5 -1.28 5 -4 5 C-3.34 4.34 -2.68 3.68 -2 3 C-1.34 3.33 -0.68 3.66 0 4 C0 2.68 0 1.36 0 0 Z " fill="#E4D915" transform="translate(114,114)"/>
<path d="M0 0 C1.65 0 3.3 0 5 0 C4.67 0.165 4.67 0.165 3 1 C1.875 3.062 1.875 3.062 1 5 C0.34 4.67 -0.32 4.34 -1 4 C-0.67 2.68 -0.34 1.36 0 0 Z " fill="#DFDA3E" transform="translate(65,109)"/>
<path d="M0 0 C0.33 0 0.66 0 1 0 C1.33 1.65 1.66 3.3 2 5 C4.31 5.33 6.62 5.66 9 6 C9 6.33 9 6.66 9 7 C7.688 7.194 6.376 7.38 5.062 7.562 C4.332 7.667 3.601 7.771 2.848 7.879 C2.238 7.919 1.628 7.959 1 8 C0 7 0 7 -0.098 5.371 C-0.086 4.733 -0.074 4.095 -0.062 3.438 C-0.053 2.797 -0.044 2.156 -0.035 1.496 C-0.024 1.002 -0.012 0.509 0 0 Z " fill="#B1B4B0" transform="translate(29,18)"/>
<path d="M0 0 C0.082 0.474 0.165 0.949 0.25 1.438 C0.498 1.953 0.745 2.469 1 3 C3.062 3.687 3.062 3.687 5 4 C2.36 4.33 -0.28 4.66 -3 5 C-3 4.01 -3 3.02 -3 2 C-2.34 2 -1.68 2 -1 2 C-0.67 1.34 -0.34 0.68 0 0 Z " fill="#A5A5A0" transform="translate(75,0)"/>
<path d="M0 0 C-0.33 1.32 -0.66 2.64 -1 4 C-1 3.01 -1 2.02 -1 1 C-1.969 1.124 -2.939 1.248 -3.938 1.375 C-4.483 1.445 -5.028 1.514 -5.59 1.586 C-6.055 1.723 -6.521 1.859 -7 2 C-7.33 2.66 -7.66 3.32 -8 4 C-8 1 -8 1 -6.812 -0.25 C-4.287 -1.295 -2.584 -0.698 0 0 Z " fill="#9F9F22" transform="translate(75,113)"/>
<path d="M0 0 C1.65 0 3.3 0 5 0 C5 1.32 5 2.64 5 4 C4.34 4 3.68 4 3 4 C3 3.34 3 2.68 3 2 C2.34 2 1.68 2 1 2 C0.67 2.66 0.34 3.32 0 4 C0 2.68 0 1.36 0 0 Z " fill="#696405" transform="translate(93,107)"/>
<path d="M0 0 C-0.66 0 -1.32 0 -2 0 C-2 0.66 -2 1.32 -2 2 C-4.64 2 -7.28 2 -10 2 C-3.75 -1.125 -3.75 -1.125 0 0 Z " fill="#E6B407" transform="translate(64,98)"/>
<path d="M0 0 C0.66 0 1.32 0 2 0 C2.33 2.31 2.66 4.62 3 7 C2.34 7 1.68 7 1 7 C0.34 5.02 -0.32 3.04 -1 1 C-0.67 0.67 -0.34 0.34 0 0 Z " fill="#414B35" transform="translate(90,8)"/>
<path d="M0 0 C0.66 0 1.32 0 2 0 C2 0.66 2 1.32 2 2 C3.65 2 5.3 2 7 2 C5 4 5 4 2.375 4.125 C1.591 4.084 0.807 4.043 0 4 C0 2.68 0 1.36 0 0 Z " fill="#414532" transform="translate(62,0)"/>
<path d="M0 0 C2.31 0 4.62 0 7 0 C7.33 0.66 7.66 1.32 8 2 C7.34 2.66 6.68 3.32 6 4 C5.34 4 4.68 4 4 4 C4 3.34 4 2.68 4 2 C2.68 1.34 1.36 0.68 0 0 Z " fill="#EF8700" transform="translate(22,109)"/>
<path d="M0 0 C0.99 0.165 0.99 0.165 6 1 C5.763 1.062 5.763 1.062 4.562 1.375 C3 2 3 2 2 4 C1.01 3.67 0.02 3.34 -1 3 C-0.67 2.01 -0.34 1.02 0 0 Z " fill="#9A930C" transform="translate(86,104)"/>
<path d="M0 0 C1.65 0 3.3 0 5 0 C4.67 1.32 4.34 2.64 4 4 C2.68 3.34 1.36 2.68 0 2 C0 1.34 0 0.68 0 0 Z " fill="#AF4B09" transform="translate(106,95)"/>
<path d="M0 0 C0.33 0 0.66 0 1 0 C1.027 1.125 1.046 2.25 1.062 3.375 C1.074 4.001 1.086 4.628 1.098 5.273 C1 7 1 7 0 9 C-0.66 9 -1.32 9 -2 9 C-2 7.68 -2 6.36 -2 5 C-1.34 5 -0.68 5 0 5 C0 3.35 0 1.7 0 0 Z " fill="#9C9B97" transform="translate(44,16)"/>
<path d="M0 0 C0.33 0 0.66 0 1 0 C1 1.65 1 3.3 1 5 C1.99 5 2.98 5 4 5 C3.67 6.32 3.34 7.64 3 9 C1.5 7.875 1.5 7.875 0 6 C-0.269 3.931 -0.14 2.099 0 0 Z " fill="#E0E9D4" transform="translate(90,0)"/>
<path d="M0 0 C0.66 0.165 0.66 0.165 4 1 C3.34 2.32 2.68 3.64 2 5 C1.01 4.67 0.02 4.34 -1 4 C-0.67 2.68 -0.34 1.36 0 0 Z " fill="#D8D82D" transform="translate(46,114)"/>
<path d="M0 0 C0.99 0 1.98 0 3 0 C2.67 1.32 2.34 2.64 2 4 C0.68 3.67 -0.64 3.34 -2 3 C-1.188 1.5 -1.188 1.5 0 0 Z " fill="#EAF20E" transform="translate(43,108)"/>
<path d="M0 0 C0.99 0 1.98 0 3 0 C2.67 1.32 2.34 2.64 2 4 C1.01 4 0.02 4 -1 4 C-0.67 2.68 -0.34 1.36 0 0 Z " fill="#79805F" transform="translate(34,18)"/>
<path d="M0 0 C1.98 0 3.96 0 6 0 C6 0.66 6 1.32 6 2 C4.02 2.33 2.04 2.66 0 3 C0 2.01 0 1.02 0 0 Z " fill="#474443" transform="translate(81,12)"/>
<path d="M0 0 C1.65 1.65 3.3 3.3 5 5 C4.67 5.66 4.34 6.32 4 7 C3.34 7 2.68 7 2 7 C2 6.01 2 5.02 2 4 C1.34 4 0.68 4 0 4 C0 2.68 0 1.36 0 0 Z " fill="#D5D5D5" transform="translate(155,0)"/>
<path d="M0 0 C-1.75 3.875 -1.75 3.875 -4 5 C-4.66 4.34 -5.32 3.68 -6 3 C-2.25 0 -2.25 0 0 0 Z " fill="#C5C63F" transform="translate(92,108)"/>
<path d="M0 0 C1.65 1.65 3.3 3.3 5 5 C4.01 5 3.02 5 2 5 C1.34 4.34 0.68 3.68 0 3 C0 2.01 0 1.02 0 0 Z " fill="#857935" transform="translate(53,33)"/>
<path d="M0 0 C1.938 0.375 1.938 0.375 4 1 C4.33 1.66 4.66 2.32 5 3 C3.02 3.33 1.04 3.66 -1 4 C-0.67 2.68 -0.34 1.36 0 0 Z " fill="#DADFC2" transform="translate(44,29)"/>
<path d="M0 0 C0.99 0.165 0.99 0.165 6 1 C6 1.99 6 2.98 6 4 C3.532 2.848 1.952 1.952 0 0 Z " fill="#EFD611" transform="translate(60,28)"/>
<path d="M0 0 C0.825 0.33 0.825 0.33 5 2 C5 2.66 5 3.32 5 4 C3.062 3.688 3.062 3.688 1 3 C0.25 1.438 0.25 1.438 0 0 Z " fill="#898C11" transform="translate(99,114)"/>
<path d="M0 0 C0.99 0 1.98 0 3 0 C3 1.65 3 3.3 3 5 C2.34 5 1.68 5 1 5 C0.67 3.35 0.34 1.7 0 0 Z " fill="#C6C3C8" transform="translate(53,13)"/>
<path d="M0 0 C1.32 0 2.64 0 4 0 C4 0.99 4 1.98 4 3 C2.68 3 1.36 3 0 3 C0 2.01 0 1.02 0 0 Z " fill="#787E5A" transform="translate(37,1)"/>
<path d="M0 0 C0.99 0.33 1.98 0.66 3 1 C2.67 1.99 2.34 2.98 2 4 C1.01 3.67 0.02 3.34 -1 3 C-0.67 2.01 -0.34 1.02 0 0 Z " fill="#DBD742" transform="translate(85,112)"/>
<path d="M0 0 C0.66 0.33 1.32 0.66 2 1 C1.67 1.99 1.34 2.98 1 4 C-0.32 3.34 -1.64 2.68 -3 2 C-2.01 1.34 -1.02 0.68 0 0 Z " fill="#855301" transform="translate(127,110)"/>
<path d="M0 0 C1.32 0 2.64 0 4 0 C3.67 0.99 3.34 1.98 3 3 C2.01 3 1.02 3 0 3 C0 2.01 0 1.02 0 0 Z " fill="#FACE13" transform="translate(58,31)"/>
<path d="M0 0 C0.66 0 1.32 0 2 0 C2 1.32 2 2.64 2 4 C1.01 3.67 0.02 3.34 -1 3 C-0.67 2.01 -0.34 1.02 0 0 Z " fill="#646001" transform="translate(101,111)"/>
<path d="M0 0 C0.66 0 1.32 0 2 0 C2 1.32 2 2.64 2 4 C1.01 3.67 0.02 3.34 -1 3 C-0.67 2.01 -0.34 1.02 0 0 Z " fill="#4F4502" transform="translate(52,106)"/>
<path d="M0 0 C0.825 0.33 0.825 0.33 5 2 C4.34 2.66 3.68 3.32 3 4 C3 3.34 3 2.68 3 2 C2.01 2.33 1.02 2.66 0 3 C0 2.01 0 1.02 0 0 Z " fill="#AF6104" transform="translate(104,102)"/>
<path d="M0 0 C0.66 0.33 1.32 0.66 2 1 C2 1.99 2 2.98 2 4 C0.68 3.34 -0.64 2.68 -2 2 C-1.34 1.34 -0.68 0.68 0 0 Z " fill="#968F69" transform="translate(51,31)"/>
<path d="M0 0 C1.65 0 3.3 0 5 0 C4.67 0.165 4.67 0.165 3 1 C3 1.66 3 2.32 3 3 C2.01 2.67 1.02 2.34 0 2 C0 1.34 0 0.68 0 0 Z " fill="#5F5F56" transform="translate(70,12)"/>
<path d="M0 0 C0 0.99 0 1.98 0 3 C-0.99 2.835 -0.99 2.835 -6 2 C-2.25 0 -2.25 0 0 0 Z " fill="#8C8C8C" transform="translate(166,4)"/>
<path d="M0 0 C0.99 0 1.98 0 3 0 C3 0.99 3 1.98 3 3 C2.01 3 1.02 3 0 3 C0 2.01 0 1.02 0 0 Z " fill="#575900" transform="translate(82,116)"/>
<path d="M0 0 C0.99 0.33 1.98 0.66 3 1 C2.67 1.66 2.34 2.32 2 3 C1.01 3 0.02 3 -1 3 C-0.67 2.01 -0.34 1.02 0 0 Z " fill="#DFA800" transform="translate(28,116)"/>
<path d="M0 0 C0.66 0.66 1.32 1.32 2 2 C1.34 2.33 1.34 2.33 -2 4 C-1.34 2.68 -0.68 1.36 0 0 Z " fill="#969401" transform="translate(90,111)"/>
<path d="M0 0 C0.66 0.33 1.32 0.66 2 1 C2 1.66 2 2.32 2 3 C0.68 3 -0.64 3 -2 3 C-2 2.34 -2 1.68 -2 1 C-1.34 0.67 -0.68 0.34 0 0 Z " fill="#F3ED0B" transform="translate(108,110)"/>
<path d="M0 0 C-0.33 0.99 -0.66 1.98 -1 3 C-2.32 2.67 -3.64 2.34 -5 2 C-2.25 0 -2.25 0 0 0 Z " fill="#86820B" transform="translate(65,108)"/>
<path d="M0 0 C1.32 0.33 2.64 0.66 4 1 C3.34 1.33 3.34 1.33 0 3 C0 2.01 0 1.02 0 0 Z " fill="#DD9200" transform="translate(36,107)"/>
<path d="M0 0 C1.32 0.33 2.64 0.66 4 1 C4 1.66 4 2.32 4 3 C3.01 3 2.02 3 1 3 C0.67 2.01 0.34 1.02 0 0 Z " fill="#F8D31B" transform="translate(89,99)"/>
<path d="M0 0 C1.32 0 2.64 0 4 0 C4 0.99 4 1.98 4 3 C2.68 2.34 1.36 1.68 0 1 C0 0.67 0 0.34 0 0 Z " fill="#D8D437" transform="translate(58,37)"/>
<path d="M0 0 C0.33 0.99 0.66 1.98 1 3 C0.01 3.33 -0.98 3.66 -2 4 C-2 3.01 -2 2.02 -2 1 C-1.34 0.67 -0.68 0.34 0 0 Z " fill="#F7FBEE" transform="translate(23,22)"/>
<path d="M0 0 C0.495 0.33 0.495 0.33 3 2 C2.34 2.33 2.34 2.33 -1 4 C-0.67 2.68 -0.34 1.36 0 0 Z " fill="#3C4C33" transform="translate(29,12)"/>
<path d="M0 0 C2 2 2 2 2 4 C1.01 3.67 0.02 3.34 -1 3 C-0.67 2.01 -0.34 1.02 0 0 Z " fill="#C17E00" transform="translate(102,101)"/>
<path d="M0 0 C0.66 0.33 0.66 0.33 4 2 C3.01 2.33 2.02 2.66 1 3 C0.67 2.01 0.34 1.02 0 0 Z " fill="#DFDE2D" transform="translate(88,102)"/>
<path d="M0 0 C0.99 0 1.98 0 3 0 C3 0.99 3 1.98 3 3 C2.01 2.67 1.02 2.34 0 2 C0 1.34 0 0.68 0 0 Z " fill="#EED907" transform="translate(55,31)"/>
<path d="M0 0 C0.66 0 1.32 0 2 0 C2 0.99 2 1.98 2 3 C1.01 3 0.02 3 -1 3 C-0.67 2.01 -0.34 1.02 0 0 Z " fill="#8A9474" transform="translate(48,17)"/>
<path d="M0 0 C0.99 0.33 1.98 0.66 3 1 C3 1.66 3 2.32 3 3 C2.01 3 1.02 3 0 3 C0 2.01 0 1.02 0 0 Z " fill="#34372C" transform="translate(87,6)"/>
<path d="M0 0 C0.66 0.66 1.32 1.32 2 2 C1.34 2.66 0.68 3.32 0 4 C0 2.68 0 1.36 0 0 Z " fill="#605813" transform="translate(70,104)"/>
<path d="M0 0 C0.99 0.33 1.98 0.66 3 1 C3 1.66 3 2.32 3 3 C2.01 2.67 1.02 2.34 0 2 C0 1.34 0 0.68 0 0 Z " fill="#72743C" transform="translate(48,29)"/>
<path d="M0 0 C0.66 0.66 1.32 1.32 2 2 C1.01 2 0.02 2 -1 2 C-0.67 1.34 -0.34 0.68 0 0 Z " fill="#B36D00" transform="translate(104,102)"/>
</svg>
